<?xml version="1.0" encoding="UTF-8" standalone="no"?>
<svg width="949px" height="532px" viewBox="0 0 949 532" version="1.1" xmlns="http://www.w3.org/2000/svg" xmlns:xlink="http://www.w3.org/1999/xlink" xmlns:sketch="http://www.bohemiancoding.com/sketch/ns">
    <!-- Generator: Sketch 3.3.3 (12072) - http://www.bohemiancoding.com/sketch -->
    <title>Slice 1</title>
    <desc>Created with Sketch.</desc>
    <defs></defs>
    <g id="Page-1" stroke="none" stroke-width="1" fill="none" fill-rule="evenodd" sketch:type="MSPage">
        <path d="M781.68,322.4 L779.37,331.08 L766.84,335.31 L763.09,330.91 L761.27,331.41 L764.67,344.53 L769.76,345.1 L776.55,347.67 L776.55,350.24 L779.66,349.67 L784.19,343.4 L784.19,338.27 L786.74,333.14 L789.57,333.71 L786.17,326.58 L785.65,321.99 L781.68,322.4 L781.68,322.4 Z" id="kalimantan" fill="#E1E1E1" sketch:type="MSShapeGroup"></path>
        <path d="M852.76,346.29 L852.39,370.73 L855.91,370.54 L860.54,365.13 L864.43,365.32 L866.93,367.56 L867.76,374.46 L875.72,378.66 L877.76,377.91 L877.76,375.39 L871.37,370.07 L868.22,362.79 L870.72,361.58 L868.87,357.57 L865.17,357.48 L864.24,353.19 L854.43,346.57 L852.76,346.29 L852.76,346.29 Z" id="papua-new-guinea" fill="#E1E1E1" sketch:type="MSShapeGroup"></path>
        <path d="M473.88,225.49 L469.8,224.12 L452.82,227.31 L449.12,230.12 L451.38,241.79 L444.63,242.06 L440.57,248.59 L430.9,250.91 L430.93,255.66 L462.78,280.01 L468.21,280.47 L486.32,266.32 L484.51,264.04 L481.11,263.58 L479.07,260.16 L479.07,246.01 L477.71,244.64 L477.94,240.99 L474.32,237.34 L473.87,233.46 L475.45,232.32 L474.77,228.21 L473.88,225.49 L473.88,225.49 Z" id="algeria" fill="#E1E1E1" sketch:type="MSShapeGroup"></path>
        <path d="M448.29,230.28 L436.74,230.28 L434.48,235.3 L429.27,237.81 L424.97,249.45 L416.59,254.47 L404.82,273.86 L416.37,273.63 L416.82,267.93 L419.76,267.93 L419.76,260.17 L429.95,260.17 L430.18,250.13 L439.92,247.85 L444,241.23 L450.34,241 L448.29,230.28 L448.29,230.28 Z" id="morocco" fill="#E1E1E1" sketch:type="MSShapeGroup"></path>
        <path d="M404.9,274.66 L407.08,277.51 L406.63,289.83 L409.8,287.55 L412.06,287.09 L415.23,288.23 L418.85,293.25 L422.25,290.97 L438.78,290.74 L434.7,263.13 L439.08,263.11 L430.92,256.86 L430.93,260.92 L420.6,260.93 L420.55,268.68 L417.58,268.67 L417.2,274.39 L404.9,274.66 L404.9,274.66 Z" id="mauretania" fill="#E1E1E1" sketch:type="MSShapeGroup"></path>
        <path d="M410.12,288.32 L406.18,291.18 L405.28,292.78 L405,294.38 L406.45,295.42 L411.29,295.35 L414.4,294.51 L414.75,296.04 L414.47,298.06 L417.44,299.52 L418.06,300.22 L422,300.36 L422.14,298.62 L418.54,294.3 L414.53,288.87 L412.04,287.83 L410.12,288.32 L410.12,288.32 Z" id="senegal" fill="#E1E1E1" sketch:type="MSShapeGroup"></path>
        <path d="M406.89,296.34 L406.76,297.45 L413.68,297.35 L414.03,296.32 L413.88,295.28 L411.89,296.09 L406.89,296.34 L406.89,296.34 Z" id="gambia" fill="#E1E1E1" sketch:type="MSShapeGroup"></path>
        <path d="M406.79,298.22 L408.03,301.23 L408.72,299.37 L417.13,300.25 L413.49,298.38 L406.79,298.22 L406.79,298.22 Z" id="casamance" fill="#E1E1E1" sketch:type="MSShapeGroup"></path>
        <path d="M408.6,302.53 L410,305.3 L413.93,301.92 L413.97,300.88 L409.34,300.21 L408.6,302.53 L408.6,302.53 Z" id="bissau" fill="#E1E1E1" sketch:type="MSShapeGroup"></path>
        <path d="M410.42,305.94 L413.46,310.62 L417.42,307.18 L421.48,307 L424.86,311.49 L427.73,313.38 L428.81,311.28 L429.77,310.74 L429.7,306.12 L427.79,300.64 L421.93,301.29 L414.68,300.71 L414.64,302.57 L410.42,305.94 L410.42,305.94 Z" id="guinee" fill="#E1E1E1" sketch:type="MSShapeGroup"></path>
        <path d="M413.93,311.13 L419.58,316.59 L423.61,311.7 L421.09,307.75 L417.62,308.1 L413.93,311.13 L413.93,311.13 Z" id="sierra-leone" fill="#E1E1E1" sketch:type="MSShapeGroup"></path>
        <path d="M420.17,317.19 L431.15,324.53 L430.89,318.97 L427.57,315.06 L424.33,312.19 L420.17,317.19 L420.17,317.19 Z" id="liberia" fill="#E1E1E1" sketch:type="MSShapeGroup"></path>
        <path d="M432.07,324.75 L436.35,321.72 L441.67,320.79 L447.1,321.96 L444.33,317.77 L443.52,315.21 L444.33,307.64 L439.48,307.87 L437.28,305.77 L432.66,305.89 L430.46,306.24 L430.69,311.36 L429.53,311.83 L428.14,314.39 L431.72,318.58 L432.07,324.75 L432.07,324.75 Z" id="ivoire" fill="#E1E1E1" sketch:type="MSShapeGroup"></path>
        <path d="M419.46,293.84 L422.54,291.73 L439.66,291.63 L435.7,264.09 L440.22,263.96 L462.09,280.65 L465.03,281.07 L463.92,290.35 L450.17,291.6 L439.56,299.52 L437.63,304.94 L430.26,305.25 L428.38,299.84 L422.73,300.24 L422.95,298.47 L419.46,293.84 L419.46,293.84 Z" id="mali" fill="#E1E1E1" sketch:type="MSShapeGroup"></path>
        <path d="M450.59,292.28 L454.23,291.99 L460.2,300.43 L454.66,304.61 L450.65,303.58 L445.26,303.65 L444.39,306.81 L439.87,307.03 L438.63,305.34 L440.23,300.2 L450.59,292.28 L450.59,292.28 Z" id="burkina" fill="#E1E1E1" sketch:type="MSShapeGroup"></path>
        <path d="M460.89,300 L463.44,299.94 L465.74,296.49 L469.6,295.8 L473.71,298.31 L482.48,298.56 L489.26,295.8 L491.81,293.61 L492,290.73 L496.73,285.96 L497.98,275.43 L494.87,268.91 L486.91,266.97 L468.49,281.33 L465.88,281.08 L464.76,291.05 L455.36,291.99 L460.89,300 L460.89,300 Z" id="niger" fill="#E1E1E1" sketch:type="MSShapeGroup"></path>
        <path d="M444.34,315.05 L445.46,317.68 L448.38,322.26 L450,322.2 L454.42,319.69 L454.11,305.4 L450.69,304.4 L445.9,304.53 L444.34,315.05 L444.34,315.05 Z" id="ghana" fill="#E1E1E1" sketch:type="MSShapeGroup"></path>
        <path d="M455.22,319.25 L457.9,317.68 L457.84,307.33 L456.1,304.51 L454.98,305.45 L455.22,319.25 L455.22,319.25 Z" id="togo" fill="#E1E1E1" sketch:type="MSShapeGroup"></path>
        <path d="M458.71,317.49 L460.83,317.49 L460.95,311.47 L463.63,307.58 L463.51,300.81 L461.08,300.75 L456.91,304.01 L458.65,307.33 L458.71,317.49 L458.71,317.49 Z" id="benin" fill="#E1E1E1" sketch:type="MSShapeGroup"></path>
        <path d="M461.57,317.37 L465.49,317.56 L470.22,322.83 L472.52,323.46 L474.32,322.58 L477.06,322.2 L477.99,318.38 L481.72,315.93 L485.76,315.74 L493.16,302.13 L493.04,299.06 L489.62,296.43 L482.78,299.44 L473.63,299.31 L469.27,296.55 L466.16,297.24 L464.54,300.06 L464.42,308.02 L461.81,311.72 L461.57,317.37 L461.57,317.37 Z" id="nigeria" fill="#E1E1E1" sketch:type="MSShapeGroup"></path>
        <path d="M474.91,225.33 L480.44,223.1 L482.26,224.28 L482.33,225.72 L481.48,226.83 L481.61,228.8 L482.46,229.26 L482.46,232.8 L481.48,234.44 L481.61,235.49 L485.32,236.8 L482.33,241.45 L481.16,241.38 L480.96,245.12 L479.66,245.32 L478.55,244.34 L478.81,240.54 L475.17,237 L474.71,233.92 L476.47,232.54 L474.91,225.33 L474.91,225.33 Z" id="tunisia" fill="#E1E1E1" sketch:type="MSShapeGroup"></path>
        <path d="M480.05,246.03 L481.61,245.77 L482.07,242.17 L482.85,242.17 L486.04,236.93 L493.91,239.22 L496.06,242.56 L503.8,246.1 L507.83,244.4 L507.44,242.7 L505.68,241 L505.88,239.82 L508.74,237.4 L514.4,237.4 L516.55,240.28 L521.1,240.94 L521.69,277.83 L518.31,277.7 L497.89,267.08 L495.68,268.33 L487.29,266.23 L485.01,263.22 L481.69,262.76 L480,259.75 L480.05,246.03 L480.05,246.03 Z" id="libya" fill="#E1E1E1" sketch:type="MSShapeGroup"></path>
        <path d="M521.93,241.06 L524.6,241.13 L529.8,242.57 L532.27,242.64 L535.33,240.08 L536.76,240.08 L539.36,241.52 L542.65,241.52 L543.24,241.48 L545.32,247.46 L545.91,249.39 L546.46,252.28 L545.48,253 L543.79,252.15 L541.84,245.79 L540.08,245.66 L539.95,247.82 L541.12,251.56 L550.49,263.16 L550.69,268.14 L547.96,271.29 L522.32,271 L521.93,241.06 L521.93,241.06 Z" id="egypt" fill="#E1E1E1" sketch:type="MSShapeGroup"></path>
        <path d="M492.79,294 L492.92,291.05 L497.66,286.44 L498.93,275.12 L495.77,269.08 L497.98,267.95 L519.38,279.1 L519.25,290.04 L515.48,293.25 L515.48,298.89 L517.95,303.67 L513.59,303.67 L506.37,310.81 L506.18,312.97 L500.85,312.9 L500.78,313.88 L497.74,313.48 L495.66,309.55 L494.1,308.78 L494.3,307.58 L496.26,306.08 L496.26,299.06 L493.55,298.64 L490.28,296.21 L492.79,294 L492.79,294 Z" id="chad" fill="#E1E1E1" sketch:type="MSShapeGroup"></path>
        <path d="M520.15,290.43 L520.33,278.6 L522.79,278.67 L522.51,272.1 L548.31,272.33 L552,268.61 L559.96,281.34 L555.6,286.48 L555.6,294.33 L548.74,309.08 L546.38,310.12 L547.13,314.23 L550.07,314.23 L554.06,320.02 L550.86,320.43 L550.04,321.92 L549.96,324.07 L540.36,323.9 L539.38,322.41 L532.67,322.03 L520.35,309.35 L521.58,308.61 L521.91,305.63 L518.96,303.89 L516.27,298.58 L516.42,293.64 L520.15,290.43 L520.15,290.43 Z" id="sudan" fill="#E1E1E1" sketch:type="MSShapeGroup"></path>
        <path d="M477.82,322.28 L481.04,325.24 L480.81,329.82 L498.47,329.41 L499.91,327.79 L494.85,322.34 L494.1,320.37 L497.32,314.34 L495.13,310.34 L493.29,309.35 L493.29,307.32 L495.42,305.93 L495.54,299.61 L493.85,299.42 L493.82,302.74 L486.4,316.59 L481.86,316.82 L478.75,318.96 L477.82,322.28 L477.82,322.28 Z" id="cameroon" fill="#E1E1E1" sketch:type="MSShapeGroup"></path>
        <path d="M556.71,292.7 L556.46,286.81 L560.42,282.19 L561.49,283.01 L563.44,289.53 L572.8,296.5 L571.1,298.59 L564.25,292.7 L556.71,292.7 L556.71,292.7 Z" id="eritrea" fill="#E1E1E1" sketch:type="MSShapeGroup"></path>
        <path d="M571.48,299.54 L570.91,302.9 L574.87,302.84 L574.93,297.9 L573.48,297.01 L571.48,299.54 L571.48,299.54 Z" id="djibouti" fill="#E1E1E1" sketch:type="MSShapeGroup"></path>
        <path d="M549.49,309.76 L556.77,293.56 L564,293.6 L570.41,299.17 L569.96,303.76 L574.93,303.76 L575.44,306.52 L583.48,311.33 L588.44,311.58 L579.01,321.71 L566.06,325.7 L562.85,325.7 L557.13,320.82 L554.87,319.87 L550.49,313.42 L547.6,313.46 L547.26,310.5 L549.49,309.76 L549.49,309.76 Z" id="ethiopia" fill="#E1E1E1" sketch:type="MSShapeGroup"></path>
        <path d="M575.74,303.04 L579.82,305.82 L581.03,305.76 L591.16,302.28 L592.31,305.99 L591.5,309.12 L589.31,310.86 L583.84,310.51 L576.01,305.7 L575.74,303.04 L575.74,303.04 Z" id="somaliland" fill="#E1E1E1" sketch:type="MSShapeGroup"></path>
        <path d="M599.62,297.65 L601.75,300.03 L604.63,298.29 L605.67,297.94 L604.35,296.66 L601.82,297.41 L599.62,297.65 L599.62,297.65 Z" id="soqotra" fill="#E1E1E1" sketch:type="MSShapeGroup"></path>
        <path d="M591.97,302.05 L596.34,300.37 L597.89,301.3 L597.72,305.18 L593.69,316.66 L571.88,340.02 L569.35,338.28 L569.18,328.42 L572.46,324.65 L579.42,322.5 L589.63,311.72 L592.3,309.34 L593.05,305.86 L591.97,302.05 L591.97,302.05 Z" id="somalia" fill="#E1E1E1" sketch:type="MSShapeGroup"></path>
        <path d="M495.66,322.05 L500.32,327.09 L502.16,324.71 L505.09,324.83 L505.72,322.51 L508.6,320.71 L514.58,324.83 L518.03,321.41 L531.42,322 L519,309.18 L520.67,308.14 L520.9,305.88 L518.08,304.55 L513.94,304.55 L507.27,311.16 L507.04,313.88 L501.75,313.71 L501.58,314.87 L498.13,314.52 L495.02,320.43 L495.66,322.05 L495.66,322.05 Z" id="centrafrique" fill="#E1E1E1" sketch:type="MSShapeGroup"></path>
        <path d="M470.74,335.15 L471.89,334.57 L472.75,335.27 L471.89,336.6 L470.85,336.19 L470.74,335.15 L470.74,335.15 Z" id="sao-tome" fill="#E1E1E1" sketch:type="MSShapeGroup"></path>
        <path d="M473.05,331.5 L474.78,331.21 L475.36,332.31 L474.5,333.24 L473.64,333.12 L473.05,331.5 L473.05,331.5 Z" id="principe" fill="#E1E1E1" sketch:type="MSShapeGroup"></path>
        <path d="M476.84,325.41 L476.38,327.38 L477.76,328.13 L479.08,327.14 L478.62,325.11 L476.84,325.41 L476.84,325.41 Z" id="bioko" fill="#E1E1E1" sketch:type="MSShapeGroup"></path>
        <path d="M486.39,330.63 L486.27,333.12 L480.63,333 L477.18,339.67 L485.29,348.54 L487.3,346.86 L487.24,345.12 L485.86,344.48 L485.86,343.26 L488.97,341.29 L491.73,343.38 L494.78,343.44 L494.72,332.95 L489.89,332.72 L489.83,330.52 L486.39,330.63 L486.39,330.63 Z" id="gabon" fill="#E1E1E1" sketch:type="MSShapeGroup"></path>
        <path d="M480.99,330.69 L480.93,332.08 L485.47,332.31 L485.41,330.74 L480.99,330.69 L480.99,330.69 Z" id="equatorial-guinea" fill="#E1E1E1" sketch:type="MSShapeGroup"></path>
        <path d="M491,330.52 L490.94,331.97 L495.72,332.09 L495.89,344.5 L491.52,344.38 L488.99,342.41 L487.03,343.51 L486.94,344.06 L487.95,344.55 L488.24,347.1 L485.54,349.42 L486.12,350.64 L489.11,348.32 L490.55,348.32 L491.01,349.71 L492.91,350.52 L499.01,345.36 L498.89,341.59 L500.16,338.52 L504.07,335.62 L505.12,325.81 L502.34,325.82 L499.12,330.23 L491,330.52 L491,330.52 Z" id="congo" fill="#E1E1E1" sketch:type="MSShapeGroup"></path>
        <path d="M486.55,351.23 L488.29,353.49 L490.54,351.36 L489.88,349.15 L489.32,349.11 L486.55,351.23 L486.55,351.23 Z" id="cabinda" fill="#E1E1E1" sketch:type="MSShapeGroup"></path>
        <path d="M489.38,353.71 L499.69,353.53 L501.78,356.5 L501.7,358.69 L502.47,359.39 L507.59,359.39 L509.06,356.5 L511.15,356.5 L512,357.36 L514.87,357.28 L515.72,367.36 L520.68,367.52 L520.68,368.3 L534.01,374.31 L534.63,375.48 L537.42,375.48 L537.11,371.26 L532.07,368.84 L532.38,365.64 L534.55,360.56 L539.51,360.4 L535.25,346.26 L535.33,340.25 L542.07,329.71 L542.15,328.23 L541.14,327.68 L541.18,324.82 L539.95,324.71 L538.71,323.13 L518.36,322.21 L514.63,325.84 L508.52,321.82 L506.37,323.14 L504.81,336.27 L500.95,339.25 L499.79,341.89 L500,345.8 L493.04,351.49 L491.19,350.65 L491.44,351.74 L489.38,353.71 L489.38,353.71 Z" id="drc" fill="#E1E1E1" sketch:type="MSShapeGroup"></path>
        <path d="M537.82,337.9 L540.63,340.49 L540.51,343.26 L536.15,343.35 L536.15,340.29 L537.82,337.9 L537.82,337.9 Z" id="rwanda" fill="#E1E1E1" sketch:type="MSShapeGroup"></path>
        <path d="M536.21,344.21 L540.48,344.12 L539.37,347.86 L538.29,348.8 L536.97,348.8 L536.03,346.27 L536.21,344.21 L536.21,344.21 Z" id="burundi" fill="#E1E1E1" sketch:type="MSShapeGroup"></path>
        <path d="M538.3,337.09 L541.33,339.93 L543.23,338.72 L548.37,337.88 L549.25,337.97 L549.58,336.02 L552.48,329.92 L550.04,324.84 L542.13,324.89 L542.08,326.98 L543.14,328 L542.98,330.09 L538.3,337.09 L538.3,337.09 Z" id="uganda" fill="#E1E1E1" sketch:type="MSShapeGroup"></path>
        <path d="M550.83,324.52 L553.49,329.71 L550.3,336.4 L549.88,338.43 L565.81,348.28 L570.75,340.52 L568.25,338.49 L568.2,328.27 L571.33,324.85 L566.34,326.51 L562.57,326.56 L556.67,321.58 L554.81,320.78 L551.36,321.1 L550.75,322.12 L550.83,324.52 L550.83,324.52 Z" id="kenya" fill="#E1E1E1" sketch:type="MSShapeGroup"></path>
        <path d="M550.57,369.42 L568.04,367.28 L564.11,359.68 L563.9,352.4 L565.17,348.92 L548.55,338.48 L543.34,339.34 L541.53,340.68 L541.37,343.73 L540.2,347.96 L538.98,349.41 L537.23,349.57 L540.58,361.18 L546.05,363.75 L549.82,363.86 L550.57,369.42 L550.57,369.42 Z" id="tanzania" fill="#E1E1E1" sketch:type="MSShapeGroup"></path>
        <path d="M514.55,382.7 L517.72,387.1 L522.63,387.4 L524.37,388.36 L529.51,388.42 L533.94,382.21 L546.32,376.67 L547.4,371.79 L545.96,364.8 L539.5,361.12 L535.19,361.42 L533.04,366.18 L533.1,368.35 L538.18,370.82 L538.48,376.19 L534.11,376.43 L533.03,374.62 L520.89,369.44 L520.53,373.42 L514.79,373.6 L514.55,382.7 L514.55,382.7 Z" id="zambia" fill="#E1E1E1" sketch:type="MSShapeGroup"></path>
        <path d="M488.62,354.71 L492.03,367.44 L491.95,371.46 L486.96,376.82 L486.21,385.53 L505.41,385.7 L511.65,387.96 L516.8,387.29 L513.8,383.53 L513.81,372.79 L519.71,372.54 L519.71,368.35 L514.92,368.15 L513.96,358.23 L511.94,358.26 L510.85,357.28 L509.66,357.34 L508.08,360.4 L502,360.4 L500.59,358.98 L501.01,356.97 L499.35,354.54 L488.62,354.71 L488.62,354.71 Z" id="angola" fill="#E1E1E1" sketch:type="MSShapeGroup"></path>
        <path d="M547.16,377.4 L550.27,380.65 L550.21,384.81 L550.81,386.56 L554.94,382.1 L554.46,376.43 L552.25,374.74 L550.28,364.79 L546.87,364.67 L548.42,371.84 L547.16,377.4 L547.16,377.4 Z" id="malawi" fill="#E1E1E1" sketch:type="MSShapeGroup"></path>
        <path d="M541.17,411.28 L543.86,413.51 L550.2,409.65 L551.22,403.92 L551.22,394.46 L561.39,386.14 L563.13,386.2 L569.29,380.29 L568.33,368.11 L552,370.17 L552.48,373.85 L555.29,376.02 L555.95,382.65 L550.45,388.02 L549.13,385.01 L549.37,381.03 L546.2,377.59 L538.42,381.21 L545.66,384.89 L545.9,395.62 L541.11,402.73 L541.17,411.28 L541.17,411.28 Z" id="mozambique" fill="#E1E1E1" sketch:type="MSShapeGroup"></path>
        <path d="M524.66,390.3 L533.63,400.43 L540.51,402.18 L545.12,394.95 L544.76,385.37 L537.28,381.51 L534.47,382.78 L530.28,389.17 L524.48,389.11 L524.66,390.3 L524.66,390.3 Z" id="zimbabwe" fill="#E1E1E1" sketch:type="MSShapeGroup"></path>
        <path d="M496.55,419.96 L499.9,420.2 L501.87,422.19 L506.54,422.25 L507.68,408.99 L507.68,400.31 L510.67,399.71 L511.81,390.61 L519.41,390.37 L522.1,388.14 L517.55,387.96 L511.39,388.8 L504.75,386.39 L486.09,386.39 L486.57,391.69 L492.79,400.85 L491.71,405.55 L491.77,408.02 L496.55,419.96 L496.55,419.96 Z" id="namibia" fill="#E1E1E1" sketch:type="MSShapeGroup"></path>
        <path d="M508.51,409.23 L510.66,409.89 L510.36,416.04 L512.57,416.34 L517.65,411.76 L523.75,412.42 L525.37,408.32 L533.09,401.27 L523.82,390.6 L523.7,388.85 L522.68,388.55 L519.87,391.14 L512.57,391.32 L511.55,400.42 L508.68,401.08 L508.51,409.23 L508.51,409.23 Z" id="botswana" fill="#E1E1E1" sketch:type="MSShapeGroup"></path>
        <path d="M540.87,412 L538.36,412.42 L537.28,415.37 L539.2,417.12 L541.53,417.12 L543.5,414.29 L540.87,412 L540.87,412 Z" id="swaziland" fill="#E1E1E1" sketch:type="MSShapeGroup"></path>
        <path d="M527.41,423.39 L530.46,421.04 L531.9,421.1 L533.64,423.27 L533.46,425.44 L530.53,426.52 L530.53,427.36 L527.3,427.18 L526.52,424.83 L527.41,423.39 L527.41,423.39 Z" id="lesotho" fill="#E1E1E1" sketch:type="MSShapeGroup"></path>
        <path d="M534.16,401.63 L526.26,408.93 L524.38,413.44 L518.12,412.66 L512.91,417.29 L509.45,416.95 L509.73,410.55 L508.5,410.12 L507.64,423.21 L501.5,423.15 L499.65,420.97 L496.94,420.94 L499.41,428.03 L503.82,432.2 L500.67,435.87 L502.71,440.47 L507.43,442.27 L511.19,439.07 L521.96,439.13 L522.73,438.17 L527.51,437.33 L543.68,421.23 L543.62,416.16 L541.89,418.4 L539.3,418.4 L536.15,415.76 L537.75,411.78 L540.5,411.22 L540.25,403.04 L534.16,401.63 L534.16,401.63 Z M530.37,420.13 L531.88,420.07 L534.33,422.73 L534.26,425.81 L531.39,427.26 L531.21,428.28 L526.83,428.33 L525.46,425.03 L526.71,422.61 L530.37,420.13 L530.37,420.13 Z" id="south-africa" fill="#E1E1E1" sketch:type="MSShapeGroup"></path>
        <path d="M321.13,48.07 L319.77,50.24 L322.22,52.69 L321.13,55.14 L324.67,59.76 L329.02,58.4 L334.73,57.86 L341.26,64.93 L345.61,76.62 L342.08,83.96 L346.97,83.14 L349.69,84.77 L349.96,88.31 L343.98,88.58 L347.24,91.84 L351.32,92.66 L342.35,104.62 L341.26,111.96 L343.16,117.94 L341.8,121.48 L344.25,129.09 L348.87,134.26 L350.23,133.99 L353.22,133.17 L353.49,137.52 L355.39,140.24 L358.92,139.97 L361.64,129.91 L369.8,119.85 L382.04,114.96 L389.65,105.44 L393.18,107.07 L400.52,107.07 L406.5,101.09 L413.84,98.1 L414.66,93.48 L410.04,89.4 L405.96,88.04 L403.78,82.33 L408.95,79.34 L417.11,83.69 L419.83,80.7 L415.48,78.25 L424.73,65.74 L423.1,60.3 L418.75,60.03 L420.38,55.14 L425.82,52.69 L436.97,42.9 L433.71,39.37 L421.2,40.46 L414.67,46.99 L418.48,38.56 L414.13,37.47 L411.68,41.82 L408.15,38.83 L398.36,39.92 L401.08,35.57 L417.12,35.03 L413.04,29.59 L395.64,26.33 L388.57,27.42 L388.84,30.96 L381.5,28.51 L381.77,26.06 L376.6,27.15 L375.51,29.87 L380.95,31.77 L375.24,35.85 L371.16,31.23 L365.45,29.6 L364.63,33.95 L358.92,33.95 L356.74,29.33 L347.77,27.97 L342.88,30.42 L342.61,33.68 L336.36,32.86 L332.55,34.49 L332.82,38.3 L332.82,40.2 L325.75,41.56 L322.49,39.39 L320.31,42.92 L323.57,46.46 L330.37,45.64 L330.91,47.82 L325.74,50.27 L321.13,48.07 L321.13,48.07 Z" id="greenland" fill="#E1E1E1" sketch:type="MSShapeGroup"></path>
        <path d="M342.89,90.49 L344.52,92.94 L343.7,95.93 L342.07,95.93 L339.89,93.48 L340.43,91.58 L342.89,90.49 L342.89,90.49 Z" id="disko" fill="#E1E1E1" sketch:type="MSShapeGroup"></path>
        <path d="M410.87,83.69 L415.49,85.05 L415.22,88.86 L410.33,86.41 L409.24,85.05 L410.87,83.69 L410.87,83.69 Z" id="milne" fill="#E1E1E1" sketch:type="MSShapeGroup"></path>
        <path d="M906.64,418.47 L906.29,420.26 L910.9,426.69 L913.38,427.76 L913.73,425.26 L906.64,418.47 L906.64,418.47 Z" id="new-caledonia" fill="#E1E1E1" sketch:type="MSShapeGroup"></path>
        <path d="M722.48,315.57 L722.2,317.85 L728.99,329.26 L730.97,329.26 L745.12,352.93 L750.78,353.5 L753.61,345.23 L749.08,342.38 L748.23,337.82 L722.48,315.57 L722.48,315.57 Z" id="sumatra" fill="#E1E1E1" sketch:type="MSShapeGroup"></path>
        <path d="M764.14,330.92 L767.16,334.41 L778.74,330.4 L781.03,321.56 L786.19,321.19 L790.91,317.77 L784.79,313.31 L783.39,310.86 L780.37,316.43 L781.48,319.63 L779.64,322.3 L776.17,321.41 L767.76,327.58 L767.98,331.15 L764.14,330.92 L764.14,330.92 Z" id="east-malaysia" fill="#E1E1E1" sketch:type="MSShapeGroup"></path>
        <path d="M779.77,317.25 L776.89,320.74 L779.25,321.48 L780.58,319.62 L779.77,317.25 L779.77,317.25 Z" id="brunei" fill="#E1E1E1" sketch:type="MSShapeGroup"></path>
        <path d="M789.53,347.11 L791.79,349.88 L790.32,354.04 L790.32,354.83 L793.66,354.83 L794.84,344.43 L795.92,344.73 L797.88,354.23 L799.75,354.73 L801.52,350.67 L799.75,344.53 L798.28,341.86 L802.9,338.49 L801.82,337 L797.4,339.87 L796.22,339.87 L794.06,336.7 L794.75,335.31 L798.39,333.53 L803.89,335.21 L805.56,335.11 L809.69,331.25 L808.02,329.57 L804.19,332.54 L801.73,332.54 L798,330.76 L795.35,330.86 L792.4,335.61 L790.53,343.83 L789.53,347.11 L789.53,347.11 Z" id="sulawesi" fill="#E1E1E1" sketch:type="MSShapeGroup"></path>
        <path d="M814.19,328.5 L812.32,333.05 L815.27,336.91 L816.25,336.91 L817.53,334.34 L818.22,333.45 L816.94,332.06 L815.07,331.37 L814.19,328.5 L814.19,328.5 Z" id="maluku" fill="#E1E1E1" sketch:type="MSShapeGroup"></path>
        <path d="M819.99,343.45 L815.96,344.34 L814.78,345.63 L815.76,347.31 L818.41,346.32 L820.08,345.33 L822.54,347.31 L823.62,346.42 L821.66,344.04 L819.99,343.45 L819.99,343.45 Z" id="seram" fill="#E1E1E1" sketch:type="MSShapeGroup"></path>
        <path d="M753.17,356.32 L750.42,358.2 L751.01,359.78 L759.76,361.76 L764.18,362.55 L766.05,364.53 L771.06,364.93 L773.42,366.91 L775.58,366.41 L777.55,364.63 L773.91,362.95 L770.77,360.28 L762.61,358.3 L753.17,356.32 L753.17,356.32 Z" id="java" fill="#E1E1E1" sketch:type="MSShapeGroup"></path>
        <path d="M781.77,364.93 L779.61,366.12 L780.89,367.51 L784.03,366.32 L781.77,364.93 L781.77,364.93 Z" id="bali" fill="#E1E1E1" sketch:type="MSShapeGroup"></path>
        <path d="M785.5,364.04 L785.89,365.92 L788.15,366.51 L789.03,365.42 L788.05,363.93 L785.5,364.04 L785.5,364.04 Z" id="lombok" fill="#E1E1E1" sketch:type="MSShapeGroup"></path>
        <path d="M790.91,368.99 L788.16,369.39 L790.62,371.47 L792.58,371.47 L790.91,368.99 L790.91,368.99 Z" id="sumba" fill="#E1E1E1" sketch:type="MSShapeGroup"></path>
        <path d="M791.69,365.72 L791.1,366.91 L795.52,367.6 L798.96,365.62 L797,365.03 L793.86,365.92 L792.68,364.93 L791.69,365.72 L791.69,365.72 Z" id="flores" fill="#E1E1E1" sketch:type="MSShapeGroup"></path>
        <path d="M806.14,366.42 L801.03,370.68 L801.52,371.77 L803.68,371.37 L806.23,368.99 L811.24,368.3 L810.26,366.62 L806.14,366.42 L806.14,366.42 Z" id="timor" fill="#E1E1E1" sketch:type="MSShapeGroup"></path>
        <path d="M880.48,347 L879.6,348.25 L884.41,352.51 L885.07,355.01 L886.38,354.86 L886.53,352.29 L885.07,350.97 L880.48,347 L880.48,347 Z" id="new-ireland" fill="#E1E1E1" sketch:type="MSShapeGroup"></path>
        <path d="M882.89,353.03 L881.94,353.25 L881.36,355.82 L879.54,357 L874.07,357.96 L874.29,360.02 L880.05,359.73 L883.7,357.45 L883.48,353.48 L882.89,353.03 L882.89,353.03 Z" id="new-britain" fill="#E1E1E1" sketch:type="MSShapeGroup"></path>
        <path d="M889.38,357.51 L890.62,360.96 L892.81,363.09 L893.47,362.5 L893.25,360.22 L890.77,357.21 L889.38,357.51 L889.38,357.51 Z" id="bougainville" fill="#E1E1E1" sketch:type="MSShapeGroup"></path>
        <path d="M895.43,362.65 L895.58,364.93 L896.97,366.25 L898.28,365.44 L897.11,363.01 L895.43,362.65 L895.43,362.65 Z" id="choiseul" fill="#E1E1E1" sketch:type="MSShapeGroup"></path>
        <path d="M897.18,368.31 L896.01,369.56 L897.25,371.84 L898.71,372.28 L898.64,370.74 L897.18,368.31 L897.18,368.31 Z" id="new-georgia" fill="#E1E1E1" sketch:type="MSShapeGroup"></path>
        <path d="M900.03,366.99 L901.05,369.49 L903.02,371.84 L904.11,370.08 L902.65,367.58 L900.03,366.99 L900.03,366.99 Z" id="santa-isabel" fill="#E1E1E1" sketch:type="MSShapeGroup"></path>
        <path d="M905.14,370.74 L905.72,373.83 L907.11,375.74 L908.28,373.32 L905.14,370.74 L905.14,370.74 Z" id="malaita" fill="#E1E1E1" sketch:type="MSShapeGroup"></path>
        <path d="M906.74,377.65 L906.23,378.53 L907.91,380.74 L909.08,380.81 L908.35,377.94 L906.74,377.65 L906.74,377.65 Z" id="santa-ana" fill="#E1E1E1" sketch:type="MSShapeGroup"></path>
        <path d="M903.02,382.05 L901.27,382.86 L902.8,384.99 L904.11,384.25 L903.02,382.05 L903.02,382.05 Z" id="rennell" fill="#E1E1E1" sketch:type="MSShapeGroup"></path>
        <path d="M920.87,395.22 L919.63,396.88 L920.15,398.75 L920.77,399.17 L921.9,397.71 L920.87,395.22 L920.87,395.22 Z" id="espiritu-santo" fill="#E1E1E1" sketch:type="MSShapeGroup"></path>
        <path d="M921.49,400.31 L921.59,401.66 L922.93,402.08 L923.86,401.56 L922.93,400.1 L921.49,400.31 L921.49,400.31 Z" id="malakula" fill="#E1E1E1" sketch:type="MSShapeGroup"></path>
        <path d="M923.45,412.37 L922.83,413.31 L923.76,414.35 L925.31,413.83 L923.45,412.37 L923.45,412.37 Z" id="efate" fill="#E1E1E1" sketch:type="MSShapeGroup"></path>
        <path d="M948.62,410.29 L947.38,411.95 L947.28,413.82 L948.72,415.28 L948.62,410.29 L948.62,410.29 Z" id="fiji" fill="#E1E1E1" sketch:type="MSShapeGroup"></path>
        <path d="M789.37,295.53 L788.51,297.17 L788.03,299.19 L783.25,305.26 L783.54,306.51 L785.55,306.22 L791.76,299.28 L789.37,295.53 L789.37,295.53 Z" id="palawan" fill="#E1E1E1" sketch:type="MSShapeGroup"></path>
        <path d="M797.11,293.22 L797.01,298.23 L798.83,300.06 L799.5,303.62 L801.32,304.01 L802.18,301.79 L800.75,300.73 L800.37,294.47 L797.11,293.22 L797.11,293.22 Z" id="negros" fill="#E1E1E1" sketch:type="MSShapeGroup"></path>
        <path d="M802.28,295.15 L802.18,299.58 L803.23,301.31 L805.05,299.19 L804.57,295.34 L802.28,295.15 L802.28,295.15 Z" id="cebu" fill="#E1E1E1" sketch:type="MSShapeGroup"></path>
        <path d="M803.42,291.29 L805.24,293.7 L806.1,296.01 L807.73,296.01 L807.44,292.06 L805.62,290.81 L803.42,291.29 L803.42,291.29 Z" id="samar" fill="#E1E1E1" sketch:type="MSShapeGroup"></path>
        <path d="M806.96,300.35 L807.34,303.24 L803.99,305.94 L801.22,306.23 L798.26,309.41 L798.36,310.86 L801.13,309.99 L803.04,308.74 L804.67,312.88 L807.54,314.9 L808.69,314.51 L809.74,313.26 L807.45,310.95 L808.79,309.89 L810.32,311.14 L811.37,309.41 L810.32,307.29 L810.13,302.57 L806.96,300.35 L806.96,300.35 Z" id="path7462" fill="#E1E1E1" sketch:type="MSShapeGroup"></path>
        <path d="M791.38,270.97 L788.8,272.8 L788.51,278.58 L792.53,286.38 L793.87,287.44 L795.59,286.28 L798.55,286.76 L799.12,289.36 L801.32,289.55 L802.37,288.11 L801.03,286.28 L799.4,284.74 L795.96,284.36 L794.14,281.37 L796.24,278.19 L796.43,275.4 L795,271.84 L791.38,270.97 L791.38,270.97 Z" id="luzon" fill="#E1E1E1" sketch:type="MSShapeGroup"></path>
        <path d="M792.72,288.21 L793.48,290.91 L794.82,291.78 L795.78,290.53 L794.25,288.41 L792.72,288.21 L792.72,288.21 Z" id="mindoro" fill="#E1E1E1" sketch:type="MSShapeGroup"></path>
        <path d="M759.83,268.17 L757.44,268.84 L755.72,270.96 L757.15,273.75 L759.25,273.94 L761.64,271.82 L762.21,269.03 L759.83,268.17 L759.83,268.17 Z" id="hainan" fill="#E1E1E1" sketch:type="MSShapeGroup"></path>
        <path d="M787.46,246.31 L783.92,249.01 L783.73,254.21 L786.79,257.77 L787.55,257.1 L787.46,246.31 L787.46,246.31 Z" id="taiwan" fill="#E1E1E1" sketch:type="MSShapeGroup"></path>
        <path d="M830.86,158.45 L828.18,162.21 L828.37,164.04 L829.71,163.46 L832.86,159.51 L830.86,158.45 L830.86,158.45 Z" id="iturup" fill="#E1E1E1" sketch:type="MSShapeGroup"></path>
        <path d="M834.4,152.96 L833.44,155.56 L833.54,157.29 L835.17,156.23 L836.7,153.15 L836.7,152 L834.4,152.96 L834.4,152.96 Z" id="urup" fill="#E1E1E1" sketch:type="MSShapeGroup"></path>
        <path d="M840.04,130.03 L838.8,131.57 L838.9,133.98 L840.05,133.88 L841.96,130.51 L840.04,130.03 L840.04,130.03 Z" id="paramushir" fill="#E1E1E1" sketch:type="MSShapeGroup"></path>
        <path d="M837.75,135.91 L837.75,140.15 L839.09,140.63 L840.05,139.09 L840.05,135.82 L837.75,135.91 L837.75,135.91 Z" id="onekotan" fill="#E1E1E1" sketch:type="MSShapeGroup"></path>
        <path d="M798.64,120.59 L798.55,126.76 L806.29,138.71 L809.06,149.11 L813.94,158.36 L815.85,159.03 L817.48,157.68 L818.24,155.46 L811.26,147.85 L811.45,143.9 L812.98,143.23 L813.36,140.92 L799.69,121.56 L798.64,120.59 L798.64,120.59 Z" id="sakhalin" fill="#E1E1E1" sketch:type="MSShapeGroup"></path>
        <path d="M852.57,101.42 L850.66,101.61 L851.81,103.25 L854.2,104.89 L854.87,104.12 L852.57,101.42 L852.57,101.42 Z" id="bering-island" fill="#E1E1E1" sketch:type="MSShapeGroup"></path>
        <path d="M856.29,102.58 L856.58,104.22 L859.54,105.09 L859.83,103.93 L856.29,102.58 L856.29,102.58 Z" id="medny" fill="#E1E1E1" sketch:type="MSShapeGroup"></path>
        <path d="M881.29,36.39 L878.93,37.93 L878.37,39.89 L879.48,41.15 L881.98,40.31 L884.48,41.15 L885.87,41.57 L885.73,36.95 L881.29,36.39 L881.29,36.39 Z" id="st.-lawrence-island" fill="#E1E1E1" sketch:type="MSShapeGroup"></path>
        <path d="M622.76,497.62 L622.61,501.91 L628.55,503.29 L629.92,499.76 L627.79,500.37 L625.05,500.98 L624.29,497.76 L622.76,497.62 L622.76,497.62 Z" id="kerguelen" fill="#E1E1E1" sketch:type="MSShapeGroup"></path>
        <path d="M613.01,396.99 L611.49,398.98 L611.79,401.13 L614.99,398.52 L613.01,396.99 L613.01,396.99 Z" id="mauritius" fill="#E1E1E1" sketch:type="MSShapeGroup"></path>
        <path d="M607.38,400.37 L605.1,400.52 L604.95,402.51 L606.47,402.82 L608.75,401.75 L607.38,400.37 L607.38,400.37 Z" id="reunion" fill="#E1E1E1" sketch:type="MSShapeGroup"></path>
        <path d="M592.3,370.92 L590.17,375.98 L586.52,382.42 L580.13,382.88 L577.39,386.1 L577.85,395.92 L573.89,400.52 L574.35,408.34 L577.7,412.17 L581.66,411.71 L585.62,408.79 L584.71,404.19 L593.84,388.39 L592.01,386.4 L593.84,382.57 L595.82,383.18 L596.43,381.65 L594.6,373.83 L593.53,370.61 L592.3,370.92 L592.3,370.92 Z" id="madagascar" fill="#E1E1E1" sketch:type="MSShapeGroup"></path>
        <path d="M577.69,369.23 L578.15,370.76 L580.13,371.07 L580.89,369.08 L577.69,369.23 L577.69,369.23 Z" id="grande-comore" fill="#E1E1E1" sketch:type="MSShapeGroup"></path>
        <path d="M580.58,372.3 L581.34,373.99 L582.56,373.99 L583.17,371.84 L580.58,372.3 L580.58,372.3 Z" id="mayotte" fill="#E1E1E1" sketch:type="MSShapeGroup"></path>
        <path d="M602.35,356.34 L601.74,357.57 L603.41,358.95 L604.63,357.57 L602.35,356.34 L602.35,356.34 Z" id="aldabra" fill="#E1E1E1" sketch:type="MSShapeGroup"></path>
        <path d="M610.88,347.14 L609.05,348.37 L610.42,350.52 L612.25,350.52 L610.88,347.14 L610.88,347.14 Z" id="praslin" fill="#E1E1E1" sketch:type="MSShapeGroup"></path>
        <path d="M611.64,352.51 L610.42,353.89 L611.33,355.27 L613,355.58 L613.15,352.66 L611.64,352.51 L611.64,352.51 Z" id="mahe" fill="#E1E1E1" sketch:type="MSShapeGroup"></path>
        <path d="M656.4,318.76 L656.7,321.37 L658.37,321.98 L658.67,319.68 L656.4,318.76 L656.4,318.76 Z" id="male" fill="#E1E1E1" sketch:type="MSShapeGroup"></path>
        <path d="M658.53,324.28 L658.38,327.5 L659.6,328.11 L660.67,325.96 L658.53,324.28 L658.53,324.28 Z" id="maldive" fill="#E1E1E1" sketch:type="MSShapeGroup"></path>
        <path d="M658.84,330.57 L657.77,331.64 L658.99,332.71 L660.51,331.64 L658.84,330.57 L658.84,330.57 Z" id="gan" fill="#E1E1E1" sketch:type="MSShapeGroup"></path>
        <path d="M387.56,288.54 L385.66,289.63 L387.02,290.72 L388.65,289.9 L387.56,288.54 L387.56,288.54 Z" id="santo-antao" fill="#E1E1E1" sketch:type="MSShapeGroup"></path>
        <path d="M392.23,290.74 L390.99,291.84 L391.87,293.47 L393.99,292.52 L392.23,290.74 L392.23,290.74 Z" id="boa-vista" fill="#E1E1E1" sketch:type="MSShapeGroup"></path>
        <path d="M389.52,293.83 L387.93,294.78 L389.64,297.07 L390.99,296.36 L389.52,293.83 L389.52,293.83 Z" id="santiago" fill="#E1E1E1" sketch:type="MSShapeGroup"></path>
        <path d="M27.25,400.68 L25.35,400.54 L25.21,402.32 L26.7,403.28 L28.47,402.19 L27.25,400.68 L27.25,400.68 Z" id="raiatea" fill="#E1E1E1" sketch:type="MSShapeGroup"></path>
        <path d="M33.77,402.6 L31.05,404.38 L33.09,406.84 L34.86,406.43 L35.81,405.2 L33.77,402.6 L33.77,402.6 Z" id="tahiti" fill="#E1E1E1" sketch:type="MSShapeGroup"></path>
        <path d="M276.6,281.37 L275.1,281.99 L275.63,283.32 L277.39,282.17 L277.04,281.81 L276.6,281.37 L276.6,281.37 Z" id="guadeloupe" fill="#E1E1E1" sketch:type="MSShapeGroup"></path>
        <path d="M279.07,282.88 L278.19,284.75 L279.25,286.17 L280.57,285.02 L279.07,282.88 L279.07,282.88 Z" id="dominica" fill="#E1E1E1" sketch:type="MSShapeGroup"></path>
        <path d="M282.07,288.03 L281.01,289.01 L281.8,290.61 L283.3,290.17 L282.07,288.03 L282.07,288.03 Z" id="martinique" fill="#E1E1E1" sketch:type="MSShapeGroup"></path>
        <path d="M281.98,292.03 L281.27,293.54 L282.42,294.78 L283.92,293.98 L281.98,292.03 L281.98,292.03 Z" id="st.-lucia" fill="#E1E1E1" sketch:type="MSShapeGroup"></path>
        <path d="M282.07,295.85 L280.84,296.74 L281.81,298.52 L283.4,297.63 L282.07,295.85 L282.07,295.85 Z" id="st.-vincent" fill="#E1E1E1" sketch:type="MSShapeGroup"></path>
        <path d="M280.57,299.31 L279.42,300.46 L279.86,301.17 L281.27,301.17 L281.71,300.01 L280.57,299.31 L280.57,299.31 Z" id="grenada" fill="#E1E1E1" sketch:type="MSShapeGroup"></path>
        <path d="M282.24,302.78 L281.18,303.76 L280.03,303.94 L280.03,305.36 L282.15,307.31 L283.03,305.89 L283.56,304.29 L283.38,302.96 L282.24,302.78 L282.24,302.78 Z" id="trinidad" fill="#E1E1E1" sketch:type="MSShapeGroup"></path>
        <path d="M271.05,279.06 L268.41,278.17 L266.29,279.5 L267.35,280.74 L270.96,281.27 L271.05,279.06 L271.05,279.06 Z" id="puerto-rico" fill="#E1E1E1" sketch:type="MSShapeGroup"></path>
        <path d="M250.87,273.38 L249.2,275.09 L251.11,275.87 L251.39,278.26 L247.16,278.63 L247.59,280.93 L248.82,281.02 L249.53,279.96 L254.47,280.12 L255.36,281.83 L256.5,280.49 L259.83,279.59 L262.76,280.21 L263.1,278.44 L257.82,274.99 L254.4,273.71 L250.87,273.38 L250.87,273.38 Z" id="haiti-dominican-border" fill="#E1E1E1" sketch:type="MSShapeGroup"></path>
        <path d="M250.86,273.38 L254.3,273.74 L253.89,277.96 L253.55,280.18 L249.54,279.96 L248.83,281.03 L247.6,280.94 L247.16,278.63 L251.39,278.28 L251.13,275.88 L249.19,275.08 L250.86,273.38 L250.86,273.38 Z" id="haiti" fill="#E1E1E1" sketch:type="MSShapeGroup"></path>
        <path d="M406.36,115.31 L404.4,114.2 L401.76,115.87 L399.49,117.97 L399.55,119.14 L402.49,119.51 L402.31,121.61 L401.27,122.66 L401.52,123.34 L404.46,123.53 L404.46,126.93 L408.69,127.67 L411.2,129.09 L414.02,129.21 L418.86,126.8 L422.6,121.86 L422.66,118.52 L420.39,116.6 L418.49,114.99 L417.63,115.61 L416.34,117.28 L414.87,117.09 L413.4,115.48 L411.5,115.66 L408.74,117.95 L407.08,119.74 L406.16,118.94 L406.1,116.96 L407.02,116.34 L406.36,115.31 L406.36,115.31 Z" id="iceland" fill="#E1E1E1" sketch:type="MSShapeGroup"></path>
        <path d="M488.26,51.96 L486.61,50.3 L482.95,52.08 L476.23,52.08 L475.17,56 L478.94,59.33 L480.59,59.09 L482.95,55.05 L484.95,56.48 L483.53,59.33 L482.82,63.49 L484.47,66.1 L488.01,60.16 L492.61,54.57 L490.84,53.03 L488.26,51.96 L488.26,51.96 Z" id="spitsbergen" fill="#E1E1E1" sketch:type="MSShapeGroup"></path>
        <path d="M490.26,44.83 L487.31,47.56 L489.08,50.29 L492.26,50.29 L493.56,52.07 L497.45,54.09 L501.93,51.48 L505,48.87 L503.94,46.73 L500.87,44.95 L498.63,46.97 L497.1,45.07 L495.92,45.19 L494.39,48.52 L492.15,46.26 L491.91,44.72 L490.26,44.83 L490.26,44.83 Z" id="nordaustlandet" fill="#E1E1E1" sketch:type="MSShapeGroup"></path>
        <path d="M496.98,57.07 L494.62,59.21 L492.62,60.75 L493.56,62.41 L495.45,63 L498.52,61.57 L499.94,59.79 L498.64,57.65 L496.98,57.07 L496.98,57.07 Z" id="edgeoya" fill="#E1E1E1" sketch:type="MSShapeGroup"></path>
        <path d="M547.82,36.79 L549.54,37.48 L548.33,39.56 L548.33,42.51 L545.75,44.07 L543,44.07 L541.45,42.16 L541.62,40.08 L542.83,38.52 L545.24,38.52 L547.82,36.79 L547.82,36.79 Z" id="prince-george" fill="#E1E1E1" sketch:type="MSShapeGroup"></path>
        <path d="M554.36,34.88 L554.36,36.96 L556.08,38.35 L558.49,38.18 L560.56,36.27 L560.56,34.88 L558.67,34.88 L557.12,35.4 L555.91,34.01 L554.36,34.88 L554.36,34.88 Z" id="salisbury" fill="#E1E1E1" sketch:type="MSShapeGroup"></path>
        <path d="M564.18,35.06 L565.39,37.66 L567.8,37.83 L569.52,37.14 L568.66,34.71 L566.42,34.19 L564.18,35.06 L564.18,35.06 Z" id="wilczek" fill="#E1E1E1" sketch:type="MSShapeGroup"></path>
        <path d="M573.99,31.59 L572.1,31.24 L570.38,32.98 L571.24,34.54 L571.76,36.97 L574,35.24 L574.52,33.33 L573.99,31.59 L573.99,31.59 Z" id="bell" fill="#E1E1E1" sketch:type="MSShapeGroup"></path>
        <path d="M584.49,49.98 L583.97,52.41 L580.01,55.88 L571.57,57.79 L564.68,69.24 L563.47,72.54 L570.36,74.28 L571.39,70.12 L573.46,63.7 L578.8,60.92 L583.28,57.45 L586.55,56.06 L588.27,56.06 L588.27,51.38 L584.49,49.98 L584.49,49.98 Z" id="novaya-zemlya-north" fill="#E1E1E1" sketch:type="MSShapeGroup"></path>
        <path d="M562.28,75.31 L566.93,75.83 L568.48,81.21 L572.44,85.37 L571.06,88.15 L568.65,88.15 L566.41,85.55 L561.42,85.38 L559.35,82.6 L559.35,80.69 L562.45,79.82 L562.28,75.31 L562.28,75.31 Z" id="novaya-zemlya-south" fill="#E1E1E1" sketch:type="MSShapeGroup"></path>
        <path d="M634.95,16.15 L632.71,14.76 L630.13,14.76 L629.61,16.32 L626.86,17.88 L624.79,18.57 L624.45,20.65 L629.27,21 L634.95,16.15 L634.95,16.15 Z" id="komsomolets" fill="#E1E1E1" sketch:type="MSShapeGroup"></path>
        <path d="M640.28,16.67 L639.07,19.27 L636.66,19.1 L632.87,21.88 L631.84,25.35 L634.25,25.35 L635.63,23.09 L638.9,25.52 L642,24.13 L644.24,22.22 L643.38,19.27 L642.17,17.19 L640.28,16.67 L640.28,16.67 Z" id="october" fill="#E1E1E1" sketch:type="MSShapeGroup"></path>
        <path d="M645.28,18.58 L646.49,23.44 L648.38,27.95 L650.45,24.31 L654.41,23.44 L654.41,20.84 L651.83,18.93 L645.28,18.58 L645.28,18.58 Z" id="bolshevik" fill="#E1E1E1" sketch:type="MSShapeGroup"></path>
        <path d="M739.76,10.8 L742.45,13.06 L744.36,12.27 L744.92,9.1 L741,6.39 L738.42,8.09 L732.14,8.66 L732.14,11.49 L725.52,11.6 L725.52,16.23 L733.26,21.99 L735.28,20.52 L734.83,16.45 L739.77,15.21 L738.76,13.29 L736.97,11.48 L739.76,10.8 L739.76,10.8 Z" id="kotelny" fill="#E1E1E1" sketch:type="MSShapeGroup"></path>
        <path d="M746.94,8.09 L748.73,11.48 L755.69,10.69 L757.6,8.2 L757.15,6.05 L755.24,5.26 L753.45,6.62 L748.29,7.75 L746.94,8.09 L746.94,8.09 Z" id="novaya-sibir" fill="#E1E1E1" sketch:type="MSShapeGroup"></path>
        <path d="M746.49,21.31 L743.01,20.41 L741,22.56 L740.1,25.5 L744.81,25.05 L748.4,23.24 L746.49,21.31 L746.49,21.31 Z" id="lyakhovsky" fill="#E1E1E1" sketch:type="MSShapeGroup"></path>
        <path d="M836.68,1.76 L833.76,0.86 L830.4,2.1 L828.72,4.59 L830.85,7.42 L836.46,4.93 L837.58,3.69 L836.68,1.76 L836.68,1.76 Z" id="wrangel" fill="#E1E1E1" sketch:type="MSShapeGroup"></path>
        <path d="M680.54,306.05 L680.79,308.77 L681.04,310.75 L679.57,311 L680.31,315.45 L682.52,316.69 L685.95,314.71 L684.97,310.02 L685.22,308.29 L682.03,305.33 L680.54,306.05 L680.54,306.05 Z" id="sri-lanka" fill="#E1E1E1" sketch:type="MSShapeGroup"></path>
        <path d="M220.85,264.92 L220.85,266.19 L226.17,266.29 L228.68,264.83 L229.07,265.9 L234.29,267.17 L238.93,271.36 L237.87,272.82 L238.06,274.48 L241.93,275.45 L245.8,273.7 L247.54,271.95 L245.03,270.68 L232.08,263.08 L227.54,262.59 L220.85,264.92 L220.85,264.92 Z" id="cuba" fill="#E1E1E1" sketch:type="MSShapeGroup"></path>
        <path d="M239.61,257.13 L238.35,256.74 L238.25,259.17 L239.8,260.73 L240.86,259.17 L239.61,257.13 L239.61,257.13 Z" id="bimini" fill="#E1E1E1" sketch:type="MSShapeGroup"></path>
        <path d="M242.12,260.93 L240.38,261.9 L242.02,264.24 L242.89,263.07 L242.12,260.93 L242.12,260.93 Z" id="andros" fill="#E1E1E1" sketch:type="MSShapeGroup"></path>
        <path d="M247.73,262.68 L245.89,262.58 L246.08,263.75 L247.43,265.7 L248.59,264.43 L247.73,262.68 L247.73,262.68 Z" id="inagua" fill="#E1E1E1" sketch:type="MSShapeGroup"></path>
        <path d="M246.86,260.35 L243.86,259.08 L243.28,256.06 L244.44,255.57 L245.6,257.91 L246.76,258.79 L246.86,260.35 L246.86,260.35 Z" id="eleuthera" fill="#E1E1E1" sketch:type="MSShapeGroup"></path>
        <path d="M243.96,254.21 L242.41,253.82 L242.12,251.87 L240.48,251.29 L241.54,250.22 L243.47,250.9 L244.92,251.78 L243.96,254.21 L243.96,254.21 Z" id="grand-bahama" fill="#E1E1E1" sketch:type="MSShapeGroup"></path>
        <path d="M238.93,277.59 L235.45,278.47 L235.45,279.44 L237.48,280.61 L239.61,280.61 L240.96,279.05 L238.93,277.59 L238.93,277.59 Z" id="jamaica" fill="#E1E1E1" sketch:type="MSShapeGroup"></path>
        <path d="M831.93,337.34 L827.76,337.81 L825.08,339.77 L826.19,342.01 L830.73,342.85 L830.73,343.69 L827.86,346.02 L829.25,350.87 L830.64,350.96 L831.84,346.2 L834.06,346.2 L834.99,350.86 L845.82,359.82 L846.1,366.82 L849.8,370.83 L851.47,370.74 L851.84,346.02 L845.55,341.64 L839.62,345.65 L837.49,346.96 L833.97,344.72 L833.88,337.63 L831.93,337.34 L831.93,337.34 Z" id="irian-jaya" fill="#E1E1E1" sketch:type="MSShapeGroup"></path>
        <path d="M194.97,336.18 L194.35,338.93 L193.2,340.09 L193.99,341.51 L196.02,340.71 L196.99,339.02 L196.37,337.24 L194.97,336.18 L194.97,336.18 Z" id="galapagos" fill="#E1E1E1" sketch:type="MSShapeGroup"></path>
        <path d="M285.05,312.13 L292.27,318.67 L289.4,321.99 L289.17,323.96 L292.94,327.85 L292.85,331.59 L286.29,334.09 L282.36,328.78 L283.2,322.4 L281.52,317.65 L285.05,312.13 L285.05,312.13 Z" id="guyana" fill="#E1E1E1" sketch:type="MSShapeGroup"></path>
        <path d="M293.13,319.14 L295.17,321.01 L298.33,319.05 L301.21,319.14 L300.84,320.26 L299.63,322.78 L299.44,329.05 L293.69,331.39 L293.97,327.37 L290.26,323.91 L290.45,322.13 L293.13,319.14 L293.13,319.14 Z" id="suriname" fill="#E1E1E1" sketch:type="MSShapeGroup"></path>
        <path d="M302.13,319.8 L307.98,323.45 L304.92,329.53 L303.81,330.93 L300.56,329.06 L300.65,322.51 L302.13,319.8 L302.13,319.8 Z" id="guyane" fill="#E1E1E1" sketch:type="MSShapeGroup"></path>
        <path d="M300.36,429.93 L298.31,432.12 L299.16,443.9 L305.6,445.77 L313.79,437.56 L300.36,429.93 L300.36,429.93 Z" id="uruguay" fill="#E1E1E1" sketch:type="MSShapeGroup"></path>
        <path d="M204.56,280.4 L204.51,284.05 L205.35,284.05 L208.21,278.71 L206.27,278.71 L204.56,280.4 L204.56,280.4 Z" id="belize" fill="#E1E1E1" sketch:type="MSShapeGroup"></path>
        <path d="M817.97,70.93 L819.73,77.01 L823.25,78.02 L826.77,72.45 L824.76,68.65 L825.51,65.36 L830.79,65.36 L829.53,67.89 L830.03,77.01 L822.49,95.75 L823.24,99.8 L822.99,106.64 L837.06,127.15 L839.82,127.91 L840.07,111.2 L842.83,108.67 L839.81,102.09 L842.32,99.3 L836.79,91.96 L833.77,92.21 L832.77,80.06 L840.56,78.03 L841.06,74.48 L845.08,73.47 L847.34,75.5 L850.1,64.36 L854.87,56.26 L858.64,54.23 L861.91,54.48 L861.91,50.68 L856.63,49.67 L849.34,43.59 L852.86,39.54 L849.84,32.7 L852.35,30.17 L855.37,34.22 L862.91,37.01 L871.2,37.77 L872.21,34.23 L867.94,29.93 L872.71,23.35 L861.9,19.55 L859.14,25.12 L855.62,20.56 L835.77,13.72 L816.92,17.01 L814.16,18.53 L814.16,20.05 L818.18,22.08 L817.68,26.89 L810.39,23.85 L794.31,30.18 L791.55,24.36 L780.49,24.36 L775.46,29.68 L757.62,25.63 L741.29,28.92 L739.28,33.98 L741.79,34.74 L741.54,38.54 L725.71,40.31 L726.72,45.37 L712.14,42.84 L715.66,36.26 L700.83,35.5 L702.09,42.34 L697.32,44.62 L693.3,40.82 L676.97,43.61 L670.69,49.43 L670.44,52.97 L666.42,53.22 L665.92,49.17 L678.74,38.03 L678.74,30.43 L670.45,28.15 L659.64,31.69 L655.12,27.13 L653.11,27.13 L650.6,32.19 L652.61,34.47 L638.28,42.32 L625.97,51.69 L618.43,62.07 L618.43,66.37 L626.47,69.66 L622.45,72.7 L613.91,69.66 L610.39,72.7 L605.11,66.62 L604.1,68.9 L609.88,87.13 L611.39,87.64 L615.41,85.61 L617.42,87.13 L617.42,90.42 L613.65,88.9 L611.39,90.67 L612.9,93.96 L611.64,102.57 L603.85,103.33 L603.35,100.54 L607.87,97.75 L608.88,90.15 L603.85,83.57 L602.09,72.18 L594.05,70.91 L593.3,74.96 L594.81,76.99 L591.54,79.78 L592.8,87.38 L597.57,89.41 L598.58,94.98 L593.8,91.94 L581.49,89.66 L579.98,93.71 L570.18,97.25 L568.67,94.72 L555.85,101.81 L555.6,106.62 L550.57,107.38 L552.08,103.84 L552.08,100.3 L547.05,98.53 L543.78,99.8 L546.54,105.12 L548.55,108.66 L548.55,111.45 L544.78,110.69 L544.03,109.93 L540.26,113.98 L542.27,117.52 L533.73,117.27 L536.49,120.82 L535.74,122.34 L531.22,122.34 L527.95,120.06 L527.2,113.73 L521.92,111.7 L521.92,109.17 L532.98,111.45 L539.01,111.96 L541.52,108.16 L539.26,104.11 L523.18,97.78 L517.63,99.16 L515.73,100.79 L516.32,104.54 L518.68,104.95 L518.13,110.85 L525.41,127.95 L520.15,136.29 L519.79,138.17 L522.46,140.05 L520.05,141.64 L518.45,141.67 L518.75,149.02 L520.96,152.15 L520.99,155.19 L523.82,155.45 L528.15,157.1 L532.73,163.4 L532.78,165.06 L531.29,167.61 L534.71,167.42 L538.04,168.38 L542.54,174.75 L553.62,175.76 L553.14,183.34 L549.32,186.61 L550.11,187.89 L546.34,191.94 L545.34,195.74 L547.6,199.03 L554.89,201.56 L557.91,199.79 L577.26,207.13 L578.01,205.1 L573.99,201.3 L573.99,196.49 L571.48,195.73 L571.98,191.68 L576,186.87 L568.79,181.47 L569.29,173.96 L577,168.89 L586.05,169.4 L587.56,172.19 L596.86,172.7 L603.65,168.9 L600.13,165.1 L600.88,158.01 L618.47,149.4 L632,155.5 L636.52,151.45 L649.84,164.11 L659.89,163.1 L663.41,166.64 L672.96,167.65 L679.24,159.04 L687.28,162.59 L691.55,163.35 L695.82,159.55 L692.05,157.02 L695.32,151.96 L704.62,155 L706.63,159.05 L710.65,159.3 L713.16,157.53 L719.95,157.28 L720.7,159.05 L728.49,159.56 L733.77,153.99 L744.58,155.26 L747.85,153.99 L748.85,147.91 L745.58,140.57 L748.85,137.78 L759.15,137.78 L768.95,149.43 L781.51,156.52 L785.28,156.52 L785.78,153.48 L790.3,150.69 L790.8,167.15 L786.78,167.4 L786.78,171.45 L789.04,174.24 L788.62,177.86 L790.29,178.55 L791.3,176.02 L792.81,176.53 L793.81,177.54 L798.33,176.53 L802.85,163.36 L803.35,146.9 L797.57,133.73 L790.28,124.87 L786.76,125.38 L786.76,128.17 L778.22,124.88 L781.49,117.79 L784.25,99.05 L795.81,95.51 L801.34,91.97 L807.37,91.97 L805.86,94 L807.37,96.53 L812.65,90.96 L815.67,91.21 L815.17,87.92 L810.39,86.91 L813.66,75.01 L817.97,70.93 L817.97,70.93 Z" id="russia" fill="#E1E1E1" sketch:type="MSShapeGroup"></path>
        <path d="M670.4,168.07 L666.94,176.77 L662.17,176.52 L657.14,187.53 L661.41,192.97 L652.61,205.12 L648.09,204.36 L645.07,208.16 L645.82,210.44 L649.34,210.69 L651.1,214.74 L654.62,215.5 L665.43,229.43 L665.43,236.52 L670.71,239.81 L676.49,238.8 L683.78,243.1 L692.58,245.63 L696.85,245.12 L701.63,244.61 L711.68,238.03 L714.95,238.54 L716.2,241.51 L718.97,242.34 L722.74,247.91 L720.23,253.48 L721.74,257.28 L726.01,258.8 L726.76,263.36 L731.79,263.87 L732.54,261.59 L739.83,257.79 L744.35,258.04 L749.63,263.86 L753.15,262.34 L755.41,262.59 L756.42,265.38 L758.18,265.63 L760.69,262.09 L770.74,258.29 L779.79,247.4 L782.81,237.02 L782.56,230.18 L778.79,229.42 L781.05,226.89 L780.55,222.84 L771,213.22 L771,208.41 L773.76,204.87 L776.52,203.6 L776.77,200.81 L769.73,200.81 L768.47,204.61 L765.2,203.85 L761.18,199.55 L763.69,192.97 L767.21,189.17 L770.48,189.42 L769.98,195.24 L771.74,196.76 L776.01,192.46 L777.52,192.21 L777.02,188.92 L781.04,184.11 L784.06,184.36 L785.82,178.79 L787.88,177.7 L788.09,174.23 L786.09,172.13 L785.92,166.65 L789.77,166.4 L789.52,152.27 L786.82,153.89 L785.81,157.51 L781.3,157.5 L768.23,150.15 L758.79,138.77 L749.21,138.67 L746.77,140.79 L749.87,147.89 L748.79,154.55 L744.93,156.15 L742.76,155.98 L742.6,162.57 L744.86,163.08 L748.88,161.31 L754.16,163.84 L754.16,166.37 L750.39,166.62 L747.37,173.2 L744.61,173.45 L734.81,186.36 L724.51,190.92 L717.47,191.43 L712.7,188.14 L705.91,191.69 L698.62,189.41 L696.86,184.6 L684.55,183.84 L678.02,173.21 L675.26,173.21 L673.04,168.28 L670.4,168.07 L670.4,168.07 Z" id="china" fill="#E1E1E1" sketch:type="MSShapeGroup"></path>
        <path d="M673.8,168.17 L679.62,160.45 L686.61,163.68 L691.36,164.95 L697.18,159.61 L693.23,156.7 L695.83,153.03 L703.59,155.77 L706.28,160.18 L711.14,160.31 L713.68,158.42 L718.91,158.21 L720.05,160.15 L728.74,160.59 L734.24,154.98 L741.85,155.78 L741.41,163.42 L744.74,164.18 L748.83,162.32 L753.16,164.46 L753.06,165.54 L749.92,165.63 L746.65,172.49 L744.11,172.74 L734.23,185.65 L724.14,190.1 L717.83,190.59 L712.59,187.21 L705.89,190.79 L699.29,188.74 L697.42,183.95 L684.92,183.07 L678.52,172.22 L675.41,172.02 L673.8,168.17 L673.8,168.17 Z" id="mongolia" fill="#E1E1E1" sketch:type="MSShapeGroup"></path>
        <path d="M778.28,192.27 L780.12,193.04 L780.68,199.48 L784.33,199.69 L787.77,195.66 L786.58,194.6 L786.72,190.28 L789.88,186.46 L788.27,183.56 L789.32,182.36 L789.9,179.36 L788.07,178.53 L786.51,179.32 L784.58,185.18 L781.46,184.91 L777.85,189.17 L778.28,192.27 L778.28,192.27 Z" id="north-korea" fill="#E1E1E1" sketch:type="MSShapeGroup"></path>
        <path d="M788.34,196.2 L794.52,201.24 L795.57,206.12 L795.36,208.74 L792.34,212.14 L789.74,212.28 L786.79,205.91 L785.67,202.87 L786.86,201.95 L786.58,200.68 L785.11,200.02 L788.34,196.2 L788.34,196.2 Z" id="south-korea" fill="#E1E1E1" sketch:type="MSShapeGroup"></path>
        <path d="M576.69,186.62 L580.79,184.87 L585.37,184.71 L585.69,191.71 L583.01,191.71 L580.96,195.05 L583.64,199.5 L587.59,201.73 L587.95,204.28 L589.4,203.8 L590.74,202.21 L592.95,202.69 L594.06,204.92 L596.9,204.92 L596.9,202.06 L595.16,196.97 L594.37,192.84 L599.42,190.61 L606.21,191.72 L610.47,196.01 L620.1,195.06 L625.47,202.69 L631.78,203.01 L633.52,200.15 L635.73,199.67 L636.05,196.49 L639.36,196.33 L641.1,198.4 L642.84,194.27 L657.83,196.34 L660.35,193 L656.09,187.75 L661.77,175.35 L666.35,175.67 L669.51,168.04 L663.2,167.4 L659.57,163.9 L649.57,165.06 L636.69,152.61 L632.15,156.64 L618.38,150.39 L601.49,158.66 L601.02,164.54 L604.97,169.15 L597.27,173.5 L587.28,173.28 L585.19,170.21 L577.36,169.78 L569.94,174.55 L569.78,181.07 L576.69,186.62 L576.69,186.62 Z" id="kazakhstan" fill="#E1E1E1" sketch:type="MSShapeGroup"></path>
        <path d="M593.85,205.59 L593.23,208.22 L589.08,208.22 L589.08,211.78 L593.54,214.72 L592.16,218.75 L592.16,220.61 L594.01,220.92 L596.47,217.67 L602.01,216.43 L613.85,220.92 L614,224.17 L620.61,224.79 L627.99,217.04 L627.07,214.56 L622.15,213.48 L608.31,204.49 L607.69,201.24 L602.46,201.24 L600.15,205.58 L597.84,205.58 L593.85,205.59 L593.85,205.59 Z" id="turkmenistan" fill="#E1E1E1" sketch:type="MSShapeGroup"></path>
        <path d="M628.92,217.06 L632,217.22 L632,211.95 L629.08,210.25 L634,204.05 L636,204.05 L638,206.38 L643.23,204.37 L636,201.89 L635.72,200.39 L634,200.81 L632.31,203.75 L625.02,203.51 L619.67,195.94 L610.27,196.87 L605.79,192.43 L599.59,191.38 L595.09,193.21 L597.7,201.89 L597.73,204.81 L599.63,204.85 L601.96,200.41 L608.16,200.49 L609.08,203.9 L622.37,212.72 L627.51,213.9 L628.92,217.06 L628.92,217.06 Z" id="uzbekistan" fill="#E1E1E1" sketch:type="MSShapeGroup"></path>
        <path d="M630.19,209.84 L634.3,204.74 L635.85,204.74 L636.39,205.88 L634.49,207.26 L634.49,208.4 L635.74,209.3 L641.75,209.66 L643.71,208.82 L644.6,209 L645.2,210.92 L648.77,211.28 L650.56,215.06 L650.02,216.2 L649.31,216.26 L648.6,214.82 L647.05,214.7 L644.37,215.06 L644.19,217.58 L641.51,217.4 L641.63,214.22 L639.67,212.3 L636.69,214.76 L636.75,216.38 L634.13,217.28 L632.58,217.28 L632.7,211.7 L630.19,209.84 L630.19,209.84 Z" id="tajikistan" fill="#E1E1E1" sketch:type="MSShapeGroup"></path>
        <path d="M636.81,197.21 L636.5,199.74 L636.75,201.3 L645.45,204.22 L637.81,207.3 L636.94,206.58 L635.29,207.64 L635.37,208.22 L636.25,208.62 L641.61,208.76 L644.33,207.94 L647.82,203.54 L652.19,204.3 L657.46,197 L643.36,195.08 L641.41,199.81 L638.95,197.17 L636.81,197.21 L636.81,197.21 Z" id="kirgizstan" fill="#E1E1E1" sketch:type="MSShapeGroup"></path>
        <path d="M614.12,225.05 L615.71,237.51 L619.67,238.38 L620.04,240.62 L617.2,242.99 L622.49,247.26 L632.77,243.56 L633.59,239.18 L640.06,235.14 L642.54,225.78 L644.39,223.79 L642.47,220.45 L648.73,216.58 L647.93,215.46 L645.04,215.64 L644.78,218.3 L640.9,218.26 L640.83,214.71 L639.58,213.22 L637.48,215.13 L637.54,216.88 L634.37,218.08 L628.52,217.71 L620.92,225.67 L614.12,225.05 L614.12,225.05 Z" id="afghanistan" fill="#E1E1E1" sketch:type="MSShapeGroup"></path>
        <path d="M623.13,247.84 L625.73,251.7 L625.48,253.69 L622.02,255.06 L621.77,258.3 L625.73,258.3 L627.09,257.18 L634.63,257.18 L641.43,263.16 L642.3,260.29 L647.37,260.29 L647.49,256.68 L642.3,251.7 L643.41,248.96 L648.73,248.59 L655.9,233.64 L651.94,230.53 L650.46,225.3 L660.1,224.43 L654.41,216.33 L651.38,215.51 L650.14,217.01 L649.21,217.08 L643.52,220.69 L645.38,223.81 L643.28,226.05 L640.68,235.64 L634.25,239.75 L633.38,244.24 L623.13,247.84 L623.13,247.84 Z" id="pakistan" fill="#E1E1E1" sketch:type="MSShapeGroup"></path>
        <path d="M670.98,311.01 L675.56,308.77 L678.28,298.93 L678.16,286.85 L693.74,270.03 L693.74,266.04 L696.95,264.79 L696.83,260.18 L693.37,253.45 L695.35,249.84 L699.68,253.83 L705.24,254.08 L705.24,256.32 L703.51,258.19 L703.88,259.19 L706.85,259.31 L707.47,262.67 L708.34,262.67 L710.57,258.68 L711.68,248.22 L715.39,245.6 L715.51,241.99 L714.03,239.12 L711.68,239 L702.48,245.08 L703.06,248.99 L696.6,248.97 L694.32,246.18 L693.08,246.34 L693.5,250.22 L679.53,249.22 L670.87,245.36 L670.41,240.61 L664.64,237.03 L664.57,229.66 L660.61,225.13 L651.51,226 L652.5,229.96 L656.96,233.57 L649.25,249.35 L644.09,249.74 L643.24,251.64 L648.32,256.34 L648.07,261.09 L642.88,261.01 L642.32,263.37 L646.63,263.18 L646.75,265.05 L643.66,266.67 L645.64,270.41 L649.47,271.66 L651.82,269.92 L652.93,266.81 L654.29,266.19 L655.9,267.81 L655.41,271.8 L654.3,273.67 L654.55,276.91 L670.98,311.01 L670.98,311.01 Z" id="india" fill="#E1E1E1" sketch:type="MSShapeGroup"></path>
        <path d="M671.19,240.56 L671.65,244.83 L679.73,248.49 L692.68,249.45 L692.19,246.32 L683.54,243.94 L676.2,239.57 L671.19,240.56 L671.19,240.56 Z" id="nepal" fill="#E1E1E1" sketch:type="MSShapeGroup"></path>
        <path d="M695.4,246.08 L696.95,248.2 L702.19,248.24 L701.66,245.34 L695.4,246.08 L695.4,246.08 Z" id="bhutan" fill="#E1E1E1" sketch:type="MSShapeGroup"></path>
        <path d="M695.57,251.11 L694.26,253.48 L697.66,259.94 L697.76,264.98 L698.38,266.33 L702.37,266.4 L704.63,264.23 L706.27,265.22 L706.6,268.29 L707.91,267.47 L707.99,263.55 L706.89,263.42 L706.2,260.09 L703.42,259.99 L702.73,258.14 L704.43,255.87 L704.46,254.75 L699.52,254.75 L695.57,251.11 L695.57,251.11 Z" id="bangladesh" fill="#E1E1E1" sketch:type="MSShapeGroup"></path>
        <path d="M729.44,301.65 L726.67,297.21 L728.68,294.39 L726.78,290.9 L724.99,290.56 L724.65,284.7 L721.97,279.51 L721.19,280.75 L719.4,283.79 L717.16,284.13 L716.04,282.66 L715.48,278.71 L713.8,275.55 L706.96,269.1 L708.64,267.99 L708.95,263.32 L711.45,259.12 L712.53,248.67 L716.15,246.2 L716.27,242.39 L718.44,243.11 L721.86,248.06 L719.32,253.5 L721.03,257.77 L725.26,259.43 L726.03,264.08 L731.71,264.96 L730.14,267.67 L722.98,270.49 L722.2,275.11 L727.46,281.87 L727.68,285.48 L726.45,286.72 L726.56,287.85 L730.48,293.6 L730.59,299.57 L729.44,301.65 L729.44,301.65 Z" id="burma" fill="#E1E1E1" sketch:type="MSShapeGroup"></path>
        <path d="M730.03,268.47 L733.27,272.64 L733.27,277.71 L734.39,278.27 L739.54,275.79 L740.55,276.13 L746.7,283.23 L746.48,288.08 L744.47,287.74 L742.68,286.61 L741.34,286.72 L738.99,290.66 L739.44,292.8 L741.34,293.81 L741.23,296.18 L739.89,296.86 L735.3,293.7 L735.3,290.88 L733.4,290.77 L732.62,292.01 L732.22,304.63 L735.19,310.05 L740.45,315.12 L740.23,316.59 L737.43,316.48 L734.86,312.65 L732.17,312.65 L728.81,309.94 L727.8,307.12 L729.25,304.75 L729.75,302.61 L731.33,299.81 L731.26,293.37 L727.4,287.79 L727.24,287.11 L728.49,285.85 L728.2,281.42 L723.06,274.91 L723.66,271.16 L730.03,268.47 L730.03,268.47 Z" id="thailand" fill="#E1E1E1" sketch:type="MSShapeGroup"></path>
        <path d="M732.71,313.45 L734.72,317.96 L735.17,323.82 L737.86,327.99 L744.35,331.93 L746.81,332.16 L746.36,328.1 L744.23,322.92 L741.11,316.29 L740.85,317.45 L737.09,317.28 L734.39,313.4 L732.71,313.45 L732.71,313.45 Z" id="malaysia" fill="#E1E1E1" sketch:type="MSShapeGroup"></path>
        <path d="M740.48,297.47 L744.57,301.84 L752.18,296.2 L752.85,287.3 L748.92,290.01 L746.88,288.87 L744.11,288.5 L742.56,287.41 L741.81,287.45 L739.78,290.78 L740.11,292.32 L742.17,293.47 L741.92,296.6 L740.48,297.47 L740.48,297.47 Z" id="cambodia" fill="#E1E1E1" sketch:type="MSShapeGroup"></path>
        <path d="M735.47,260.93 L733.05,262.16 L731.04,268.02 L734.4,272.3 L733.84,277.03 L734.4,277.26 L739.99,274.55 L747.49,282.93 L747.31,288.21 L748.94,289.09 L752.97,285.82 L752.64,283.23 L741.01,272.18 L741.12,270.49 L742.57,269.48 L741.56,266.66 L736.75,265.87 L735.47,260.93 L735.47,260.93 Z" id="laos" fill="#E1E1E1" sketch:type="MSShapeGroup"></path>
        <path d="M745.06,302.45 L746.25,304.32 L746.47,306.46 L749.6,306.8 L753.4,301.73 L756.98,300.72 L758.88,295.54 L757.99,287.2 L754.3,282.13 L750.41,279.02 L745.46,270.52 L749.01,264.58 L743.93,258.75 L739.86,258.57 L736.2,260.54 L737.29,265.25 L742.17,266.11 L743.48,269.74 L741.76,270.86 L741.87,271.76 L753.32,282.96 L753.77,286.25 L753.08,296.65 L745.06,302.45 L745.06,302.45 Z" id="vietnam" fill="#E1E1E1" sketch:type="MSShapeGroup"></path>
        <path d="M555.46,202.16 L558.73,206.43 L562.81,208.31 L565.32,208.3 L569.63,207.13 L570.71,205.44 L557.96,200.67 L555.46,202.16 L555.46,202.16 Z" id="georgia" fill="#E1E1E1" sketch:type="MSShapeGroup"></path>
        <path d="M569.72,207.89 L574.52,214.15 L573.11,215.8 L569.71,215.21 L565.49,211.43 L565.72,208.95 L569.72,207.89 L569.72,207.89 Z" id="armenia" fill="#E1E1E1" sketch:type="MSShapeGroup"></path>
        <path d="M571.41,205.72 L570.4,207.44 L575.11,213.62 L576.75,213.09 L579.45,215.92 L580.62,210.96 L583.55,211.43 L583.43,210.01 L578.61,205.79 L577.69,208.27 L571.41,205.72 L571.41,205.72 Z" id="azerbaijan" fill="#E1E1E1" sketch:type="MSShapeGroup"></path>
        <path d="M569.65,215.95 L568.43,217.22 L568.55,219.23 L570.07,221.36 L575.46,227.26 L574.64,229.62 L573.7,229.62 L573.23,231.98 L576.28,235.88 L579.09,236.12 L584.72,243.91 L587.88,244.15 L590.34,245.92 L590.46,249.46 L600.19,255.13 L603.82,255.13 L606.05,253.24 L608.86,253.12 L610.5,256.9 L621.01,258.36 L621.32,254.5 L624.8,253.24 L624.96,251.86 L622.19,248.08 L616.02,243.12 L619.26,240.17 L619.03,238.87 L614.97,238.24 L613.25,224.54 L613.05,221.39 L602.04,217.18 L597.16,218.28 L594.43,221.63 L592.01,221.47 L591.31,222.06 L585.92,221.71 L579.12,216.75 L576.59,213.98 L575.43,214.26 L573.34,216.65 L569.65,215.95 L569.65,215.95 Z" id="iran" fill="#E1E1E1" sketch:type="MSShapeGroup"></path>
        <path d="M558.7,207.19 L556.47,209.55 L548.27,209.31 L543.35,206.36 L538.55,206.24 L533.04,210.14 L527.88,210.38 L527.41,213.33 L521.55,213.33 L519.21,215.46 L519.21,216.64 L520.62,217.82 L520.62,219.12 L520.03,220.66 L520.62,221.96 L522.5,221.02 L524.38,223.03 L523.91,224.45 L523.21,225.4 L524.26,226.58 L529.42,227.64 L533.05,226.1 L533.05,223.86 L534.81,224.21 L539.03,226.69 L543.6,225.98 L545.59,224.09 L546.88,224.56 L546.88,226.69 L548.64,226.69 L550.16,223.74 L563.52,222.32 L569.35,221.61 L567.81,219.59 L567.78,216.86 L568.95,215.46 L564.69,212.04 L564.92,209.09 L562.58,209.09 L558.7,207.19 L558.7,207.19 Z" id="turkey" fill="#E1E1E1" sketch:type="MSShapeGroup"></path>
        <path d="M571.99,287.23 L573.43,291.51 L573.43,295.69 L576.89,298.83 L601.27,288.9 L601.5,286.17 L597.59,279.15 L587.78,282.28 L582.15,287.82 L575.62,283.96 L571.99,287.23 L571.99,287.23 Z" id="yemen" fill="#E1E1E1" sketch:type="MSShapeGroup"></path>
        <path d="M598.38,278.84 L605.77,274.58 L607.08,268.33 L605.46,267.4 L606.13,260.7 L607.54,259.88 L609.05,262.25 L618.04,266.95 L618.04,269.56 L607.15,285.59 L602.14,285.76 L598.38,278.84 L598.38,278.84 Z" id="oman" fill="#E1E1E1" sketch:type="MSShapeGroup"></path>
        <path d="M594.01,262.94 L594.88,266.42 L604.74,267.29 L605.43,260.15 L607.33,259.11 L607.85,256.5 L604.74,257.37 L601.28,262.6 L594.01,262.94 L594.01,262.94 Z" id="emirates" fill="#E1E1E1" sketch:type="MSShapeGroup"></path>
        <path d="M592.63,257.02 L592.11,261.03 L593.65,262.2 L595.05,262.07 L595.57,257.02 L594.36,256.15 L592.63,257.02 L592.63,257.02 Z" id="qatar" fill="#E1E1E1" sketch:type="MSShapeGroup"></path>
        <path d="M583.29,245.17 L581.04,243.95 L579.48,245.52 L579.65,248.66 L583.28,250.05 L583.29,245.17 L583.29,245.17 Z" id="kuwait" fill="#E1E1E1" sketch:type="MSShapeGroup"></path>
        <path d="M584,251.24 L591.01,261.01 L593.27,262.81 L594.28,267.19 L605.07,268.04 L606.29,268.68 L605.08,274.08 L597.99,278.26 L587.62,281.4 L582.09,286.8 L575.52,282.97 L571.54,286.45 L566,277.4 L562.2,275.66 L560.82,273.57 L560.82,269.04 L546.99,252.32 L546.47,249.36 L550.45,249.36 L555.29,245.18 L555.46,243.09 L554.08,241.7 L556.85,239.44 L562.73,239.79 L572.76,248.15 L578.68,247.88 L579.06,249.34 L584,251.24 L584,251.24 Z" id="saudi" fill="#E1E1E1" sketch:type="MSShapeGroup"></path>
        <path d="M546.67,227.13 L546.32,229.67 L549.14,230.85 L549.02,237.89 L551.84,237.83 L554.66,235.7 L555.72,235.52 L562.12,230.43 L563.41,223.04 L550.62,224.34 L549.27,227.3 L546.67,227.13 L546.67,227.13 Z" id="syria" fill="#E1E1E1" sketch:type="MSShapeGroup"></path>
        <path d="M564.31,223.03 L562.75,230.74 L556.29,236.12 L556.7,238.66 L563.01,239.09 L573.06,247.27 L578.68,247.11 L578.83,245.22 L580.89,243.01 L583.77,244.64 L584.15,244.28 L578.58,236.87 L575.94,236.71 L572.43,232.2 L573.13,228.88 L574.2,228.74 L574.57,227.27 L569.79,222.24 L564.31,223.03 L564.31,223.03 Z" id="iraq" fill="#E1E1E1" sketch:type="MSShapeGroup"></path>
        <path d="M548.9,238.78 L546.44,247.36 L546.33,248.67 L550.2,248.67 L554.53,244.85 L554.64,243.4 L552.87,241.59 L556.04,238.96 L555.58,236.52 L554.71,236.72 L552.07,238.61 L548.9,238.78 L548.9,238.78 Z" id="jordan" fill="#E1E1E1" sketch:type="MSShapeGroup"></path>
        <path d="M546.2,230.44 L546.26,232.39 L545.44,235.35 L548.26,235.59 L548.44,231.39 L546.2,230.44 L546.2,230.44 Z" id="lebanon" fill="#E1E1E1" sketch:type="MSShapeGroup"></path>
        <path d="M545.32,236.06 L543.74,241.09 L545.79,247.12 L548.14,238.31 L548.14,236.42 L545.32,236.06 L545.32,236.06 Z" id="israel" fill="#E1E1E1" sketch:type="MSShapeGroup"></path>
        <path d="M510.66,164.29 L512.16,166.76 L511.56,168.73 L511.66,170.29 L512.21,172.16 L515.31,170.4 L519.16,170.5 L521.86,171.61 L528.71,171.61 L530.71,166.82 L531.91,165.01 L531.91,163.8 L527.61,157.75 L523.81,156.24 L520.71,155.89 L518.01,156.75 L518.11,159.47 L514.36,164.21 L510.66,164.29 L510.66,164.29 Z" id="belarus" fill="#E1E1E1" sketch:type="MSShapeGroup"></path>
        <path d="M495.62,193.16 L492.09,196.07 L488.51,196.07 L488.08,198.59 L489.72,199.02 L490.54,197.8 L491.83,198.93 L492.86,202.53 L499.93,205.83 L500.63,205.03 L493.46,197.63 L494.19,196.28 L501,196.02 L501.69,193.85 L497.25,193.98 L495.62,193.16 L495.62,193.16 Z" id="croatia" fill="#E1E1E1" sketch:type="MSShapeGroup"></path>
        <path d="M494.8,196.94 L494.43,197.55 L501.14,204.47 L503.6,200.85 L503.51,199.42 L501.36,196.81 L494.8,196.94 L494.8,196.94 Z" id="bosnia" fill="#E1E1E1" sketch:type="MSShapeGroup"></path>
        <path d="M515.57,171.15 L512.67,172.78 L513.39,175.86 L510.71,181.51 L510.73,184 L511.99,184.8 L520.07,185.2 L522.33,183.33 L524.75,184.14 L528.22,188.77 L525.68,193.33 L528.7,194.21 L532.65,189.66 L534.91,190.07 L537.01,191.53 L535.16,193.97 L537.66,197.87 L540.32,197.87 L541.69,195.27 L544.51,194.7 L544.59,192.59 L539.35,191.78 L539.51,189.51 L544.59,189.51 L550.07,185.12 L552.49,183.01 L552.89,176.35 L542.09,175.38 L537.66,169.13 L534.6,168.08 L530.89,168.24 L529.22,172.37 L521.62,172.47 L519.15,171.33 L515.57,171.15 L515.57,171.15 Z" id="ukraine" fill="#E1E1E1" sketch:type="MSShapeGroup"></path>
        <path d="M520.75,185.71 L523.85,190.48 L523.59,193.18 L524.7,193.23 L527.33,188.78 L524.17,184.86 L522.38,184.12 L520.75,185.71 L520.75,185.71 Z" id="moldova" fill="#E1E1E1" sketch:type="MSShapeGroup"></path>
        <path d="M505.55,192.54 L503.5,194.08 L502.5,194.08 L501.82,196.2 L504.24,199.01 L504.4,201.24 L501.4,205.48 L501.82,206.75 L503.56,207.07 L504.93,205.21 L505.67,205.16 L506.93,206.38 L510.77,205.21 L510.45,199.75 L505.55,192.54 L505.55,192.54 Z" id="serbia-and-montenegro" fill="#E1E1E1" sketch:type="MSShapeGroup"></path>
        <path d="M504.02,207.76 L504.02,212.37 L505.34,214.86 L506.29,214.75 L507.92,211.78 L506.97,210.45 L506.6,207.16 L505.34,205.99 L504.02,207.76 L504.02,207.76 Z" id="albania" fill="#E1E1E1" sketch:type="MSShapeGroup"></path>
        <path d="M510.92,206.01 L507.55,207.12 L507.71,209.98 L508.5,210.99 L512.5,209.13 L510.92,206.01 L510.92,206.01 Z" id="macedonia" fill="#E1E1E1" sketch:type="MSShapeGroup"></path>
        <path d="M523.02,207.7 L522.86,211.25 L525.96,210.3 L527.38,209.35 L526.96,207.81 L525.49,206.64 L523.02,207.7 L523.02,207.7 Z" id="thrace" fill="#E1E1E1" sketch:type="MSShapeGroup"></path>
        <g id="Available" sketch:type="MSLayerGroup" transform="translate(0.000000, 14.000000)" fill="#1462F5">
            <path d="M136.49,209.43 L141.32,224.64 L139.07,225.9 L139.32,228.92 L143.57,232.19 L143.57,238.24 L148.82,243.28 L146.57,228.42 L143.57,218.59 L144.32,211.79 L146.82,212.04 L147.82,214.31 L146.82,220.1 L159.82,245.54 L159.82,254.61 L170.32,266.95 L181.82,272.24 L186.57,269.47 L193.32,275.01 L197.32,270.98 L195.57,266.44 L201.32,264.68 L203.07,265.69 L204.82,263.93 L207.57,263.93 L212.57,255.11 L210.07,252.84 L200.32,255.11 L198.07,261.66 L192.32,262.67 L185.57,259.9 L182.57,250.33 L184.84,238.26 L180.2,235.37 L177.99,223.78 L176.14,222.99 L172.76,226.42 L168.88,224.35 L167.36,216.62 L151.99,215.01 L144.05,209.04 L136.49,209.43 L136.49,209.43 Z" id="mexico" sketch:type="MSShapeGroup"></path>
            <path d="M516.77,127.66 L511.17,127.46 L507.62,129.63 L507.57,131.24 L509.87,133.41 L517.02,134.62 L516.77,127.66 L516.77,127.66 Z" id="estonia" sketch:type="MSShapeGroup"></path>
            <path d="M760.17,411.98 L759.82,437.36 L755.92,440.22 L755.57,442.72 L760.89,446.29 L774.02,443.79 L780.76,443.79 L783.24,440.21 L798.14,437.35 L808.78,440.57 L808.07,444.86 L809.49,449.15 L817.65,447.72 L818,449.86 L812.68,453.79 L814.45,455.22 L818.35,453.79 L817.29,465.59 L824.74,471.31 L829,469.88 L831.13,472.02 L843.55,470.23 L855.26,451.28 L859.52,450.21 L868.03,434.48 L870.16,420.9 L864.84,414.11 L866.97,412.68 L862.71,399.45 L858.1,396.23 L858.81,378.36 L854.55,375.14 L853.49,365.13 L851.36,365.13 L844.26,388.72 L840.36,389.08 L831.49,380.14 L836.46,366.91 L827.24,365.12 L816.95,367.98 L814.11,376.2 L809.5,377.27 L809.15,371.55 L790.35,382.99 L790.7,387.28 L787.86,391.21 L780.76,391.21 L765.5,397.64 L760.17,411.98 L760.17,411.98 Z" id="australia" sketch:type="MSShapeGroup"></path>
            <path d="M824.74,480.26 L822.97,487.41 L823.32,492.41 L828.64,492.05 L834.67,482.76 L824.74,480.26 L824.74,480.26 Z" id="tasmania" sketch:type="MSShapeGroup"></path>
            <path d="M407.18,220.42 L406.1,221.79 L407.18,223.16 L408.81,222.34 L407.18,220.42 L407.18,220.42 Z" id="madeira" sketch:type="MSShapeGroup"></path>
            <path d="M414.62,237.73 L412.87,238.74 L413.68,239.56 L414.62,237.73 L414.62,237.73 Z" id="lanzarote" sketch:type="MSShapeGroup"></path>
            <path d="M408.54,237.92 L406.37,238.47 L407.45,240.11 L409.08,240.11 L408.54,237.92 L408.54,237.92 Z" id="gran-canaria" sketch:type="MSShapeGroup"></path>
            <path d="M403.38,236.28 L402.02,237.65 L403.92,239.29 L405,236.83 L403.38,236.28 L403.38,236.28 Z" id="tenerife" sketch:type="MSShapeGroup"></path>
            <path d="M9,232.7 L8.86,235.03 L10.9,236.4 L12.12,235.31 L9,232.7 L9,232.7 Z" id="path13641" sketch:type="MSShapeGroup"></path>
            <path d="M14.29,236.13 L12.39,237.5 L14.02,239.55 L15.92,237.91 L14.29,236.13 L14.29,236.13 Z" id="path13643" sketch:type="MSShapeGroup"></path>
            <path d="M18.1,239.41 L16.47,241.6 L17.01,242.97 L19.32,241.88 L18.1,239.41 L18.1,239.41 Z" id="path13645" sketch:type="MSShapeGroup"></path>
            <path d="M20.81,243.65 L19.86,249.12 L20.81,251.17 L23.93,250.21 L25.56,247.47 L22.16,244.32 L20.81,243.65 L20.81,243.65 Z" id="hawaii" sketch:type="MSShapeGroup"></path>
            <path d="M262.11,264.44 L256.82,260.98 L254.32,260.13 L253.48,266.13 L254.36,267.82 L255.51,266.49 L258.86,265.6 L261.77,266.22 L262.11,264.44 L262.11,264.44 Z" id="domincan-republic" sketch:type="MSShapeGroup"></path>
            <path d="M306.95,492.18 L304.32,491.89 L301.7,493.65 L303.6,495.71 L306.95,492.18 L306.95,492.18 Z" id="falklands-west" sketch:type="MSShapeGroup"></path>
            <path d="M309.57,490.86 L308.7,493.65 L306.22,495.85 L306.37,496.58 L310.6,494.96 L312.35,492.76 L309.57,490.86 L309.57,490.86 Z" id="falklands-east" sketch:type="MSShapeGroup"></path>
            <path d="M92.11,28.89 L83.72,30.88 L85.45,40.33 L94.58,42.82 L95.07,44.81 L81.5,49.04 L73.85,61.72 L76.56,75.15 L81,78.13 L84.46,74.9 L85.45,76.89 L81.25,81.86 L64.96,89.32 L54.59,91.81 L54.34,95.54 L78.28,88.58 L88.15,85.84 L97.28,74.65 L107.4,67.94 L102.22,76.64 L107.9,77.39 L117.53,73.16 L119.26,80.12 L125.92,81.61 L132.83,88.32 L133.32,93.29 L132.33,94.53 L133.56,99.25 L135.29,99.25 L135.54,91.29 L137.51,91.29 L138,110.93 L142.94,106.7 L139.48,86.31 L134.3,86.31 L128.62,79.1 L156.51,31.85 L128.87,10.22 L98.02,16.19 L96.79,25.64 L103.45,29.62 L100.98,36.09 L92.11,28.89 L92.11,28.89 Z" id="alaska" sketch:type="MSShapeGroup"></path>
            <path d="M202.73,19.89 L202.95,23.91 L194.97,32.18 L196.97,38.88 L202.73,37.32 L206.06,32.4 L214.48,29.27 L221.35,28.82 L216.03,23.01 L213.37,25.02 L211.37,24.35 L210.26,21.89 L207.82,19.43 L202.73,19.89 L202.73,19.89 Z" id="banks" sketch:type="MSShapeGroup"></path>
            <path d="M213.15,8.05 L211.38,11.18 L220.03,14.31 L223.13,9.62 L224.46,12.75 L226.68,12.75 L230.89,8.06 L225.79,6.72 L223.79,5.16 L221.13,7.84 L213.15,8.05 L213.15,8.05 Z" id="prince-patrick" sketch:type="MSShapeGroup"></path>
            <path d="M228.23,14.31 L221.36,17.21 L221.36,19.44 L230.23,22.79 L228.23,25.02 L229.56,27.92 L235.1,25.46 L239.76,25.46 L241.98,29.03 L245.75,25.23 L244.86,21.65 L241.76,22.77 L241.32,18.3 L242.87,15.62 L241.32,15.62 L238.88,17.18 L237.77,18.07 L238.44,21.2 L236.67,22.54 L234.01,22.32 L233.34,18.3 L228.23,14.31 L228.23,14.31 Z" id="eglinton" sketch:type="MSShapeGroup"></path>
            <path d="M237.32,7.38 L236.65,9.61 L240.86,11.62 L243.96,9.83 L243.74,8.49 L237.32,7.38 L237.32,7.38 Z" id="mackenzie-king" sketch:type="MSShapeGroup"></path>
            <path d="M240.64,3.58 L237.54,4.7 L237.76,6.26 L244.63,5.81 L244.41,4.25 L240.64,3.58 L240.64,3.58 Z" id="king-christian" sketch:type="MSShapeGroup"></path>
            <path d="M255.5,7.38 L255.06,8.94 L253.95,10.5 L253.95,12.73 L258.16,12.06 L262.59,15.86 L264.14,15.86 L264.14,12.06 L259.71,7.14 L255.5,7.38 L255.5,7.38 Z" id="ellef-ringnes" sketch:type="MSShapeGroup"></path>
            <path d="M266.81,11.85 L268.58,13.86 L267.03,16.54 L268.14,19.44 L273.02,16.76 L273.02,14.75 L270.14,11.4 L266.81,11.85 L266.81,11.85 Z" id="amund-ringnes" sketch:type="MSShapeGroup"></path>
            <path d="M273.24,6.71 L273.46,10.28 L279.45,10.28 L281,11.62 L280.78,13.18 L275.46,13.85 L279.23,18.99 L284.33,19.88 L291.42,16.75 L281.22,1.33 L278.12,3.34 L278.34,6.02 L274.79,4.68 L273.24,6.71 L273.24,6.71 Z" id="axel-heiberg" sketch:type="MSShapeGroup"></path>
            <path d="M221.58,31.96 L213.16,34.19 L208.28,38.44 L208.72,43.13 L217.59,45.81 L215.59,50.28 L209.16,46.26 L207.39,49.61 L211.6,52.51 L211.38,57.2 L217.81,58.99 L225.57,58.54 L226.9,56.08 L232.66,62.56 L236.65,61.22 L237.32,56.75 L240.2,58.76 L240.64,54.29 L237.09,52.06 L237.31,37.99 L234.21,35.53 L230.89,40 L221.58,31.96 L221.58,31.96 Z" id="victoria" sketch:type="MSShapeGroup"></path>
            <path d="M248.63,41.79 L245.75,40.45 L244.2,42.46 L247.3,47.38 L247.52,52.07 L254.17,48.05 L254.17,42.24 L256.61,39.78 L254.17,37.99 L250.18,37.99 L248.63,41.79 L248.63,41.79 Z" id="prince-of-wales" sketch:type="MSShapeGroup"></path>
            <path d="M262.82,39.78 L258.16,43.58 L259.27,48.27 L262.15,48.27 L263.48,45.81 L265.48,47.82 L267.48,47.6 L272.8,43.13 L262.82,39.78 L262.82,39.78 Z" id="prescott" sketch:type="MSShapeGroup"></path>
            <path d="M262.37,32.4 L261.26,34.63 L266.14,36.42 L267.47,34.41 L262.37,32.4 L262.37,32.4 Z" id="cornwallis" sketch:type="MSShapeGroup"></path>
            <path d="M259.49,23.91 L254.61,24.58 L251.73,27.26 L257.05,27.48 L255.5,31.5 L256.61,33.29 L258.16,33.07 L261.93,27.04 L259.49,23.91 L259.49,23.91 Z" id="bathurst" sketch:type="MSShapeGroup"></path>
            <path d="M267.92,22.35 L265.26,23.24 L265.7,26.81 L270.13,29.71 L270.35,31.94 L269.02,33.28 L269.69,37.75 L286.76,43.33 L291.42,44.89 L296.08,40.87 L290.54,36.4 L285.44,37.74 L278.35,37.07 L275.69,34.39 L275.02,27.02 L270.59,24.79 L267.92,22.35 L267.92,22.35 Z" id="devon" sketch:type="MSShapeGroup"></path>
            <path d="M281.88,45.59 L277,45.14 L271.24,47.37 L268.14,51.61 L269.03,63.23 L278.56,63.68 L287.65,68.15 L294.08,75.52 L298.96,75.3 L297.63,82.22 L293.2,89.59 L288.32,91.82 L284.77,91.15 L283,89.59 L280.34,93.16 L281.45,96.73 L285.22,96.95 L289.88,94.72 L293.87,105 L303.85,111.48 L310.72,102.77 L304.96,93.39 L308.29,89.59 L312.95,97.41 L321.37,90.04 L319.82,86.69 L314.06,88.48 L310.07,77.53 L313.84,71.28 L306.3,63.24 L302.09,66.14 L298.1,57.43 L289.68,58.55 L287.46,48.05 L280.59,52.74 L279.92,58.55 L276.15,58.55 L276.59,53.41 L281.88,45.59 L281.88,45.59 Z" id="baffin" sketch:type="MSShapeGroup"></path>
            <path d="M291.86,49.61 L290.09,51.4 L291.64,53.86 L298.96,54.75 L294.3,49.83 L291.86,49.61 L291.86,49.61 Z" id="bylot" sketch:type="MSShapeGroup"></path>
            <path d="M284.77,24.36 L284.77,26.37 L279.89,27.49 L281.22,29.72 L286.76,31.95 L292.97,32.62 L297.4,35.75 L301.83,33.29 L298.73,30.16 L302.72,30.16 L305.16,27.48 L311.15,26.59 L311.15,25.25 L307.82,23.02 L308.26,20.56 L317.57,22.12 L331.32,16.76 L326.22,15.2 L327.55,13.41 L338.19,13.41 L339.96,11.62 L318.45,4.02 L313.35,2.23 L307.81,6.25 L301.6,1.11 L298.27,0.89 L297.6,5.14 L293.39,1.34 L288.51,2.9 L289.4,5.36 L296.72,6.92 L296.28,10.49 L300.27,12.95 L310.03,10.49 L310.25,13.84 L302.27,17.64 L297.39,13.84 L292.96,14.29 L297.39,20.55 L295.17,21.67 L291.84,18.77 L289.4,20.33 L291.62,24.57 L295.39,24.57 L294.5,28.59 L291.4,28.14 L287.41,23.89 L284.77,24.36 L284.77,24.36 Z" id="ellesmere" sketch:type="MSShapeGroup"></path>
            <path d="M265.01,85.85 L260.78,91.17 L260.52,97.03 L264.22,94.9 L268.71,94.9 L271.88,97.83 L274.79,95.43 L265.01,85.85 L265.01,85.85 Z" id="southhampton" sketch:type="MSShapeGroup"></path>
            <path d="M316.52,155.05 L305.95,165.17 L307.01,167.57 L319.95,172.36 L321.8,169.17 L320.74,163.85 L316.51,164.38 L314.13,161.72 L318.09,157.73 L316.52,155.05 L316.52,155.05 Z" id="newfoundland" sketch:type="MSShapeGroup"></path>
            <path d="M157.22,32.66 L159.21,35.67 L160.21,39.69 L165.19,40.94 L168.68,37.18 L171.67,38.69 L180.14,39.44 L186.12,36.93 L187.12,45.21 L190.61,45.21 L190.61,41.7 L194.1,41.95 L202.82,52.24 L208.55,55.75 L205.56,60.52 L206.81,61.77 L218,64.03 L218.25,69.05 L221.24,69.55 L221.99,62.02 L226.72,60.77 L230.21,66.04 L237.68,69.55 L241.42,70.3 L243.91,67.29 L244.16,62.52 L248.64,59.76 L250.13,63.78 L246.14,70.81 L246.64,74.32 L248.88,70.81 L253.36,66.79 L253.61,61.52 L251.12,57.5 L251.87,54.24 L257.85,51.23 L260.59,53.24 L261.09,70.81 L265.32,67.05 L267.81,68.56 L264.32,74.58 L268.8,75.58 L275.28,65.54 L280.76,71.31 L278.52,81.6 L273.04,84.61 L267.81,82.1 L258.35,84.11 L259.35,87.37 L256.86,91.39 L249.14,93.15 L240.42,99.93 L232.7,110.22 L231.7,113.48 L236.93,115.49 L238.92,120.51 L246.14,127.79 L257.6,132.81 L255.11,144.35 L254.86,147.61 L257.85,149.62 L261.84,144.35 L262.34,134.31 L268.57,134.06 L271.56,128.29 L272.06,119.51 L280.03,103.95 L289.99,107.46 L295.22,114.74 L292.98,122.02 L296.97,124.28 L306.68,117.75 L309.42,135.57 L318.39,146.36 L318.64,151.88 L308.68,154.39 L303.95,159.41 L293.99,157.15 L289.01,156.9 L280.29,163.68 L285.52,162.43 L292,161.18 L293.25,162.69 L291.51,168.21 L291.76,173.23 L294.75,175.24 L297.74,174.49 L299.24,172.23 L301.23,172.23 L297.99,178.25 L291.76,178.5 L289.02,182.52 L285.53,182.52 L284.53,179.51 L289.51,174.49 L283.53,176.5 L283.26,167.97 L281.54,166.97 L276.31,169.23 L275.81,173.5 L263.85,173.5 L253.64,180.53 L239.94,185.05 L238.45,183.04 L245.35,172.74 L241.43,168.97 L238.94,164.19 L233.87,160.32 L228.43,159.87 L218.68,153.04 L147.97,141.42 L146.8,136.63 L140.32,130.61 L140.32,125.59 L141.32,121.07 L140.82,118.56 L138.33,116.05 L137.83,112.03 L144.31,107.51 L140.32,85.93 L134.84,85.68 L129.86,79.15 L157.22,32.66 L157.22,32.66 Z" id="canada" sketch:type="MSShapeGroup"></path>
            <path d="M147.76,142.34 L146.76,146.36 L143.27,144.1 L141.53,144.1 L140.53,148.37 L128.32,175.73 L131.56,199.57 L135.55,201.58 L136.3,208.11 L144.52,208.11 L152.49,214.13 L168.18,215.64 L169.92,223.67 L172.41,225.43 L175.9,221.92 L178.64,223.17 L181.13,234.71 L185.36,237.47 L188.85,230.94 L199.56,223.16 L206.53,226.42 L212.51,226.92 L212.76,223.16 L225.21,223.41 L227.7,226.17 L228.2,232.44 L226.71,235.95 L228.45,241.97 L232.19,241.97 L235.93,236.2 L234.44,233.44 L232.95,227.42 L235.19,220.64 L245.4,211.86 L253.12,209.6 L252.12,202.32 L262.83,190.77 L273.54,189.01 L271.8,183 L282.26,176.98 L282.26,168.95 L281.26,168.45 L277.52,169.7 L277.02,174.62 L264.59,174.77 L254.85,181.24 L239.56,186.24 L237.12,183.25 L244.06,172.75 L240.63,169.48 L238.3,165.04 L233.47,161.16 L228.22,160.72 L218.3,153.95 L147.76,142.34 L147.76,142.34 Z" id="usa" sketch:type="MSShapeGroup"></path>
            <path d="M132.83,112.41 L131.13,115.67 L131.72,117.98 L132.83,118.67 L132.57,119.61 L131.38,119.95 L131.72,123.38 L133,124.67 L134.02,123.56 L132.74,120.22 L133.5,117.56 L135.37,115.07 L134.01,112.76 L132.83,112.41 L132.83,112.41 Z" id="haida-gwaii" sketch:type="MSShapeGroup"></path>
            <path d="M138.45,131.95 L136.92,132.55 L139.73,135.81 L140.41,139.67 L143.22,142.67 L145.6,142.24 L145.6,138.3 L142.71,136.5 L138.45,131.95 L138.45,131.95 Z" id="vancouver" sketch:type="MSShapeGroup"></path>
            <path d="M193.88,275.52 L199.81,279.86 L205.79,272.43 L204.77,270.89 L202.73,270.82 L202.73,266.47 L201.2,265.54 L196.57,266.92 L198.34,271 L193.88,275.52 L193.88,275.52 Z" id="guatemala" sketch:type="MSShapeGroup"></path>
            <path d="M206.55,272.78 L215.79,272.43 L218.53,275.69 L216.82,275.3 L213.53,275.44 L209.23,279.48 L207.39,283.57 L206.18,282.93 L206.17,278.45 L203.51,276.67 L206.55,272.78 L206.55,272.78 Z" id="honduras" sketch:type="MSShapeGroup"></path>
            <path d="M200.65,280.27 L205.35,282.61 L205.28,278.9 L202.87,277.43 L200.65,280.27 L200.65,280.27 Z" id="el-salvador" sketch:type="MSShapeGroup"></path>
            <path d="M216.74,276.11 L218.93,276.55 L219,281.04 L216.45,288.32 L209.58,287.64 L208.05,284.13 L210.09,279.87 L213.96,276.27 L216.74,276.11 L216.74,276.11 Z" id="nicaragua" sketch:type="MSShapeGroup"></path>
            <path d="M216.38,288.98 L217.77,291.7 L218.9,293.2 L217.38,297.71 L214.48,295.67 L209.74,291.33 L209.74,288.46 L216.38,288.98 L216.38,288.98 Z" id="costa-rica" sketch:type="MSShapeGroup"></path>
            <path d="M219.59,293.61 L218.13,298.17 L222.95,299.42 L225.94,300.01 L226.45,296.48 L229.66,294.86 L232.51,296.33 L233.63,298.12 L234.99,297.96 L236.06,294.71 L232.5,293.24 L229.8,291.77 L227.1,293.61 L223.89,295.23 L220.61,293.91 L219.59,293.61 L219.59,293.61 Z" id="panama" sketch:type="MSShapeGroup"></path>
            <path d="M252.73,283.78 L250.67,283.57 L237.05,294.8 L235.61,298.75 L233.75,298.96 L234.58,307.69 L229.83,319.34 L234.99,323.71 L241.6,324.13 L246.14,330.79 L252.74,331 L252.53,335.99 L255,335.99 L257.68,326.84 L255.2,323.72 L255.82,317.9 L260.98,317.48 L260.36,303.96 L248.8,300.22 L246.12,292.94 L252.73,283.78 L252.73,283.78 Z" id="colombia" sketch:type="MSShapeGroup"></path>
            <path d="M249.46,289.92 L249.9,292.51 L253.15,293.54 L253.89,288.77 L257.32,285.22 L260.75,289.24 L268.64,291.39 L275.32,289.99 L279.87,295.6 L283.3,297.75 L279.54,303.48 L280.8,307.82 L278.65,310.48 L276.42,312.35 L271.59,309.92 L270.48,311.04 L270.48,314.5 L274.01,316.18 L271.41,318.99 L268.81,321.8 L265.38,321.52 L261.93,317.73 L261.2,303.47 L249.42,299.45 L247.28,293.18 L249.46,289.92 L249.46,289.92 Z" id="venezuela" sketch:type="MSShapeGroup"></path>
            <path d="M229.2,319.85 L224.47,322.79 L224.13,327.15 L223.18,328.58 L226.16,331.44 L224.87,332.85 L225.17,336.45 L230.5,337.72 L238.57,328.17 L238.55,324.84 L234.68,324.59 L229.2,319.85 L229.2,319.85 Z" id="ecuador" sketch:type="MSShapeGroup"></path>
            <path d="M224.03,333.52 L222.09,335.48 L222.22,338.61 L239.16,369.49 L256.75,380.83 L259.47,376.27 L260.12,366.24 L258.7,359.99 L253.91,351.91 L251.06,352.82 L249.77,354.25 L244.08,347.73 L245.5,340.04 L252.1,335.74 L251.58,331.7 L244.86,331.44 L241.37,325.58 L239.43,324.93 L239.56,328.45 L230.9,338.74 L224.43,337.18 L224.03,333.52 L224.03,333.52 Z" id="peru" sketch:type="MSShapeGroup"></path>
            <path d="M304.47,402.2 L306.41,404.02 L299.04,414.97 L296.45,417.84 L297.35,430.35 L303.04,437.26 L298.26,445.6 L294.64,447.16 L290.5,447.16 L291.66,453.67 L285.19,455.89 L286.74,461.36 L282.86,473.74 L287.65,477.65 L285.06,484.03 L280.66,490.94 L282.99,495.76 L277.3,496.67 L272.64,490.94 L271.86,473.09 L264.62,442.77 L266.81,432.17 L262.15,418.62 L265.25,401.03 L268.1,397.64 L267.4,395.07 L271.06,391.73 L279.22,392.29 L283.78,397.16 L289.05,397.25 L294.45,400.55 L292.86,404.27 L293.24,408.03 L300.89,407.67 L304.47,402.2 L304.47,402.2 Z" id="argentina" sketch:type="MSShapeGroup"></path>
            <path d="M282.59,496.63 L279.38,500.18 L278.99,504.35 L272.78,500.83 L266.18,491.32 L264.24,487.93 L266.96,484.41 L266.7,479.98 L263.6,478.68 L261.14,476.86 L261.66,474.38 L264.89,473.47 L265.54,459.14 L260.5,456.27 L257.21,381.68 L258.06,380.2 L264.5,395.05 L266.56,395.09 L267.23,397.46 L264.49,400.78 L261.34,418.65 L265.82,432.41 L263.75,442.83 L271.05,473.47 L271.82,491.39 L277.05,497.44 L282.59,496.63 L282.59,496.63 Z" id="chile" sketch:type="MSShapeGroup"></path>
            <path d="M261.28,459.14 L259.99,461.09 L260.64,464.48 L261.93,464.61 L262.58,460.31 L261.28,459.14 L261.28,459.14 Z" id="chiloe" sketch:type="MSShapeGroup"></path>
            <path d="M313.24,422.85 L319.49,410.83 L319.72,400.73 L331.38,393.21 L337.91,393.21 L343.04,384.52 L343.97,367.84 L341.87,363.38 L354.23,352.1 L354.7,339.65 L337.91,331.43 L317.63,325.09 L308.07,324.15 L310.64,318.75 L309.94,310.53 L307.85,309.84 L304.76,315.98 L303.14,318.01 L298.98,316.17 L284.99,321.1 L280.33,315.23 L281.08,309.1 L276.68,313.58 L271.82,310.96 L271.33,311.65 L271.34,313.78 L275.53,316.03 L269.24,322.66 L265.27,322.62 L261.25,318.53 L256.7,318.67 L256.14,323.53 L258.75,326.7 L255.67,336.57 L252.07,336.85 L246.34,340.47 L244.94,347.58 L249.91,352.9 L250.82,351.87 L254.31,350.93 L257.29,355.95 L265.82,352.29 L269.13,352.48 L271.41,360.55 L283.58,364.41 L285.68,370.85 L290.86,371.47 L293.33,377.62 L291.66,383.09 L293.84,385.95 L293.52,390.21 L299.36,389.66 L304.71,396.42 L304.29,401.17 L307.46,403.85 L299.86,415.36 L313.24,422.85 L313.24,422.85 Z" id="brazil" sketch:type="MSShapeGroup"></path>
            <path d="M542.21,213.84 L543.44,214.73 L539.63,218.34 L537.81,218.28 L536.46,217.33 L536.64,215.56 L539.4,215.38 L542.21,213.84 L542.21,213.84 Z" id="cyprus" sketch:type="MSShapeGroup"></path>
            <path d="M514.46,86.14 L516.48,84.66 L516.3,83 L515.02,82.26 L515.2,80.23 L516.3,80.23 L516.3,79.12 L511.53,77.83 L504.38,78.57 L503.65,81.71 L502,81.16 L500.9,79.31 L497.41,79.49 L497.04,83 L495.39,83.74 L494.47,81.89 L487.13,87.8 L488.6,89.46 L485.85,90.75 L479.61,103.13 L477.41,104.61 L477.59,105.72 L479.79,106.83 L479.24,109.23 L475.57,109.04 L474.47,107.75 L472.09,110.52 L470.62,111.63 L470.25,114.22 L468.97,114.96 L465.67,115.7 L464.02,120.88 L465.12,129.38 L466.4,133.26 L467.87,134.74 L471.17,134.56 L475.94,129.94 L477.77,126.8 L478.32,131.42 L481.44,125.88 L481.62,110.35 L484.16,108.75 L484.92,100.18 L492.62,89.09 L496.29,87.8 L497.94,85.77 L503.44,87.06 L506.19,88.72 L507.11,84.1 L511.7,81.33 L514.46,86.14 L514.46,86.14 Z" id="norway" sketch:type="MSShapeGroup"></path>
            <path d="M445.12,133.08 L443.29,135.85 L444.02,136.96 L448.24,136.96 L448.24,138.81 L447.14,140.29 L447.87,144.17 L450.25,148.79 L452.08,153.04 L455.01,154.15 L456.29,156.37 L456.11,158.4 L454.28,159.51 L454.1,160.43 L455.38,161.17 L454.28,162.65 L451.71,163.76 L446.76,163.21 L439.05,166.72 L436.48,165.43 L443.82,161.18 L442.9,160.63 L439.05,160.26 L441.43,156.75 L441.8,153.79 L444.92,153.42 L444.37,147.69 L440.7,147.51 L439.6,146.22 L439.78,141.97 L437.58,142.15 L439.78,134.76 L443.82,131.8 L445.12,133.08 L445.12,133.08 Z" id="britain" sketch:type="MSShapeGroup"></path>
            <path d="M437.42,145.47 L434.12,145.84 L433.94,148.8 L436.14,150.28 L438.52,149.73 L439.44,148.07 L437.42,145.47 L437.42,145.47 Z" id="ulster" sketch:type="MSShapeGroup"></path>
            <path d="M438.51,150.55 L437.6,156.55 L429.53,159.51 L426.96,159.51 L425.13,158.22 L425.13,157.11 L429.17,154.52 L428.07,152.3 L428.25,149.16 L431.74,149.34 L433.34,145.58 L433.13,148.92 L435.84,151.07 L438.51,150.55 L438.51,150.55 Z" id="ireland" sketch:type="MSShapeGroup"></path>
            <path d="M496.72,88.58 L498.68,90.39 L502.35,90.39 L504.37,94.27 L504.92,100.92 L499.97,104.43 L499.97,107.94 L496.48,112.75 L494.46,112.93 L491.71,117.55 L491.89,121.99 L496.66,125.5 L496.29,127.53 L494.46,130.3 L491.71,132.7 L491.89,140.65 L487.67,142.13 L486.2,145.27 L484.18,145.27 L483.08,139.73 L478.49,132.69 L482.26,126.38 L482.52,110.79 L485.12,109.36 L485.75,100.44 L493.16,89.83 L496.72,88.58 L496.72,88.58 Z" id="sweden" sketch:type="MSShapeGroup"></path>
            <path d="M505.79,100.94 L507.86,101.85 L509.14,104.25 L507.86,105.91 L501.44,112.93 L500.34,116.63 L501.81,121.99 L506.76,125.69 L513.36,122.55 L518.68,121.81 L523.63,113.86 L519.96,105.17 L516.47,96.85 L517.02,91.49 L514.82,91.12 L514.25,87.21 L511.29,82.38 L508.01,84.65 L506.72,89.92 L503.24,87.83 L498.4,86.65 L497.32,87.91 L499.18,89.59 L502.57,89.53 L505.3,93.94 L505.79,100.94 L505.79,100.94 Z" id="finland" sketch:type="MSShapeGroup"></path>
            <path d="M517.07,135.37 L510.22,134.26 L510.37,138.09 L516.72,141.97 L519.32,141.21 L519.17,138.29 L517.07,135.37 L517.07,135.37 Z" id="estonia" sketch:type="MSShapeGroup"></path>
            <path d="M505.76,131.64 L504.21,131.59 L503.31,132.5 L503.96,133.46 L505.51,133.56 L506.31,132.4 L505.76,131.64 L505.76,131.64 Z" id="hiumaa" sketch:type="MSShapeGroup"></path>
            <path d="M505.61,135.72 L504.11,135.57 L501.41,138.8 L501.41,140.31 L502.31,140.66 L504.06,140.71 L506.96,138.34 L507.36,137.53 L505.61,135.72 L505.61,135.72 Z" id="saaremaa" sketch:type="MSShapeGroup"></path>
            <path d="M509.81,138.7 L507.66,138.65 L504.71,141.47 L502.21,141.47 L502.36,145 L500.86,147.77 L506.26,147.82 L507.81,147.62 L509.36,149.49 L512.91,149.34 L516.31,145.01 L516.11,142.44 L509.81,138.7 L509.81,138.7 Z" id="lithuania" sketch:type="MSShapeGroup"></path>
            <path d="M510.46,158.76 L511.31,160.32 L511.51,161.98 L510.81,163.59 L509.21,166.67 L507.86,167.28 L506.11,166.52 L505.06,166.57 L502.51,167.53 L499.61,166.67 L494.91,163.34 L490.31,160.87 L488.46,158.05 L488.11,151.4 L491.71,148.27 L496.41,146.71 L498.16,146.51 L497.46,147.92 L497.91,148.47 L505.82,148.62 L507.52,148.57 L510.32,152.86 L509.62,154.62 L509.92,156.69 L510.46,158.76 L510.46,158.76 Z" id="poland" sketch:type="MSShapeGroup"></path>
            <path d="M447.36,189 L434.62,189 L432.05,187.84 L430.81,187.93 L429.31,191.05 L429.84,194.26 L434.71,194.71 L435.33,196.76 L433.21,208.71 L433.3,210.85 L436.75,212.72 L440.73,212.99 L448.69,211.03 L452.58,206.13 L452.67,201.14 L459.57,194.9 L459.92,192.14 L453.64,192.05 L447.36,189 L447.36,189 Z" id="spain" sketch:type="MSShapeGroup"></path>
            <path d="M429.93,195.24 L429.31,203.89 L427.54,205.49 L427.72,206.47 L428.96,208.52 L428.16,211.02 L429.49,211.47 L432.59,211.11 L432.41,208.61 L434.44,197.02 L434,195.42 L429.93,195.24 L429.93,195.24 Z" id="portugal" sketch:type="MSShapeGroup"></path>
            <path d="M460.1,201.21 L458.51,201.75 L458.86,203.18 L461.16,203.18 L462.13,202.11 L460.1,201.21 L460.1,201.21 Z" id="majorca" sketch:type="MSShapeGroup"></path>
            <path d="M459.4,162.7 L457.19,163.24 L452.77,168.05 L451.44,168.14 L449.67,166.89 L448.52,167.16 L447.64,169.92 L441.18,170.1 L441.36,171.53 L445.78,174.47 L450.91,178.57 L450.82,183.47 L448.08,188.28 L454.01,191.13 L460.03,191.31 L461.89,189.17 L465.69,189.26 L466.75,190.24 L470.55,189.97 L472.5,187.47 L470.02,184.53 L469.84,182.66 L470.37,180.61 L469.13,178.83 L467.01,179.45 L466.74,177.85 L471.43,172.68 L471.43,169.56 L468.33,167.78 L466.74,167.51 L459.4,162.7 L459.4,162.7 Z" id="france" sketch:type="MSShapeGroup"></path>
            <path d="M469.09,152.27 L464.56,154.5 L465.52,155.37 L465.62,157.6 L464.66,157.41 L463.6,155.76 L461.07,159.77 L464.96,160.58 L466.41,162.11 L467.18,162.13 L467.69,158.67 L470.14,157.64 L469.09,152.27 L469.09,152.27 Z" id="netherlands" sketch:type="MSShapeGroup"></path>
            <path d="M460.61,160.52 L459.97,162.12 L466.85,166.66 L468.83,167.13 L468.9,164.98 L467.17,163.04 L466.11,163.04 L464.66,161.39 L460.61,160.52 L460.61,160.52 Z" id="belgium" sketch:type="MSShapeGroup"></path>
            <path d="M470.14,151.88 L473.71,151.3 L473.71,148.78 L476.7,148.29 L478.34,149.94 L480.07,150.13 L482.77,148.96 L485.18,149.64 L487.3,151.48 L487.59,158.37 L489.71,161.19 L486.92,161.58 L482.29,164.49 L482.68,165.46 L486.82,169.34 L486.53,171.28 L482.68,173.22 L479.11,173.32 L478.24,175.16 L476.41,175.16 L475.54,173.22 L472.36,172.44 L472.26,169.24 L469.56,167.4 L469.85,165.07 L468.02,162.55 L468.5,159.25 L471,158.08 L470.14,151.88 L470.14,151.88 Z" id="germany" sketch:type="MSShapeGroup"></path>
            <path d="M475.77,135.5 L471.62,140.09 L471.47,143.08 L473.36,148.01 L476.32,147.45 L475.95,143.42 L477.99,141.14 L477.95,139.35 L476.51,135.62 L475.77,135.5 L475.77,135.5 Z" id="denmark" sketch:type="MSShapeGroup"></path>
            <path d="M480.44,143.64 L479.51,143.6 L478.29,144.72 L478.44,146.47 L481.33,146.55 L481.48,144.57 L480.44,143.64 L480.44,143.64 Z" id="sjlland" sketch:type="MSShapeGroup"></path>
            <path d="M497.49,134.17 L495.38,135.84 L496.44,138.29 L498.31,136.47 L497.49,134.17 L497.49,134.17 Z" id="gotland" sketch:type="MSShapeGroup"></path>
            <path d="M471.91,173.38 L467.55,178.02 L467.64,178.49 L469.43,177.93 L471.04,180.17 L473.76,179.21 L475.64,180.67 L476.41,180.23 L478.73,176.59 L478.14,176.03 L475.85,175.97 L474.74,173.7 L471.91,173.38 L471.91,173.38 Z" id="switzerland" sketch:type="MSShapeGroup"></path>
            <path d="M487.43,168.87 L490.4,168.87 L491.86,168.87 L494.23,170.56 L498.62,166.91 L494.36,163.87 L490.14,161.83 L487.25,162.35 L483.33,164.87 L487.43,168.87 L487.43,168.87 Z" id="czech" sketch:type="MSShapeGroup"></path>
            <path d="M494.84,171.13 L495.53,171.74 L495.62,172.78 L503.25,172.61 L508.89,170.18 L508.8,167.71 L507.72,168.19 L506.17,167.36 L505.22,167.32 L502.72,168.32 L499.32,167.5 L494.84,171.13 L494.84,171.13 Z" id="slovakia" sketch:type="MSShapeGroup"></path>
            <path d="M479.63,174.12 L478.98,175.47 L479.54,176.43 L481.87,175.95 L483.85,175.95 L486,177.77 L490.57,176.94 L493.93,174.94 L494.79,173.59 L494.66,171.85 L491.64,169.59 L487.59,169.63 L487.25,171.93 L482.99,174.01 L479.63,174.12 L479.63,174.12 Z" id="austria" sketch:type="MSShapeGroup"></path>
            <path d="M495.74,173.6 L494.58,175.42 L494.67,178.2 L496.52,179.15 L502.21,179.32 L510.14,172.64 L510.18,171.16 L509.32,170.73 L503.59,173.33 L495.74,173.6 L495.74,173.6 Z" id="hungary" sketch:type="MSShapeGroup"></path>
            <path d="M493.8,175.99 L491.26,177.51 L486.52,178.55 L487.47,181.29 L490.79,181.33 L493.85,178.77 L493.8,175.99 L493.8,175.99 Z" id="slovenia" sketch:type="MSShapeGroup"></path>
            <path d="M471.27,180.98 L470.65,182.55 L470.82,184.26 L473.21,187.05 L476.97,186.92 L485.27,196.56 L490.45,198.06 L493.51,200.95 L494.24,207.54 L495.88,206.58 L497.3,202.99 L496.95,200.41 L499.38,200.19 L499.73,198.73 L492.88,195.45 L486.38,189.06 L483.79,185.24 L483.16,181.61 L486.47,180.82 L485.62,178.43 L483.59,176.72 L481.84,176.64 L479.4,177.31 L477.1,180.53 L475.71,181.45 L473.56,180.13 L471.27,180.98 L471.27,180.98 Z" id="italy" sketch:type="MSShapeGroup"></path>
            <path d="M491.44,207.02 L489.99,206.24 L485.04,207.02 L485.21,208.36 L489.66,210.6 L490.33,211.33 L491.5,211.5 L491.44,207.02 L491.44,207.02 Z" id="sicily" sketch:type="MSShapeGroup"></path>
            <path d="M491.61,214.47 L489.94,214.81 L490,216.66 L491.5,217.16 L492.17,216.6 L491.61,214.47 L491.61,214.47 Z" id="malta" sketch:type="MSShapeGroup"></path>
            <path d="M511.18,171.6 L510.92,173.08 L505.13,177.9 L509.97,185 L513.07,187.17 L518.65,187.17 L520.49,185.63 L522.96,185.31 L524.8,186.42 L528.06,182.71 L527.43,180.85 L524.12,180 L521.86,179.89 L521.97,176.71 L518.97,171.99 L511.18,171.6 L511.18,171.6 Z" id="romania" sketch:type="MSShapeGroup"></path>
            <path d="M510.44,186.39 L510.6,191.37 L512.28,194.87 L518.59,194.98 L521.43,192.97 L524.22,191.86 L523.54,188.68 L524.17,186.98 L522.75,186.24 L520.8,186.4 L519.27,187.94 L512.85,187.99 L510.44,186.39 L510.44,186.39 Z" id="bulgaria" sketch:type="MSShapeGroup"></path>
            <path d="M505.71,201.6 L505.6,202.93 L510.23,205.26 L512.44,206.11 L511.28,207.33 L508.7,207.59 L508.33,208.76 L509.22,210.77 L512.11,212.31 L513.37,212.42 L513.53,208.97 L515.42,206.69 L510.26,200.59 L510.94,198.52 L512.15,198.47 L513.99,199.95 L515.15,199.37 L515.52,197.3 L520.94,197.35 L521.15,194.17 L518.89,195.76 L512.26,195.6 L507.95,197.83 L505.71,201.6 L505.71,201.6 Z" id="greece" sketch:type="MSShapeGroup"></path>
            <path d="M912.02,465.96 L913.08,477.76 L911.66,483.12 L906.34,487.05 L906.69,491.7 L906.69,496.7 L908.11,498.49 L922.66,485.98 L922.66,483.12 L919.11,483.12 L914.14,466.32 L912.02,465.96 L912.02,465.96 Z" id="new-zealand-north-island" sketch:type="MSShapeGroup"></path>
            <path d="M901.38,491.7 L904.22,497.06 L896.41,504.57 L895.7,508.5 L890.38,509.21 L881.51,517.43 L873.35,513.5 L872.64,510.64 L887.54,504.21 L901.38,491.7 L901.38,491.7 Z" id="new-zealand-south-island" sketch:type="MSShapeGroup"></path>
            <path d="M257.71,356.79 L265.94,353.2 L268.66,353.46 L270.47,361.02 L283.01,365.19 L285.08,371.58 L290.25,372.23 L292.45,377.7 L290.9,382.65 L282.49,383.3 L279.39,391.25 L272.79,391.12 L270.72,390.73 L266.91,394.43 L265.03,394.25 L258.56,379.26 L260.35,376.58 L260.98,365.98 L259.38,359.67 L257.71,356.79 L257.71,356.79 Z" id="bolivia" sketch:type="MSShapeGroup"></path>
            <path d="M290.76,383.51 L292.96,385.91 L292.7,390.99 L299.04,390.6 L303.83,396.73 L303.44,402.2 L300.34,406.89 L294,407.15 L293.74,404.54 L295.55,400.24 L289.34,396.33 L284.17,396.33 L280.29,392.16 L283.11,384.1 L290.76,383.51 L290.76,383.51 Z" id="paraguay" sketch:type="MSShapeGroup"></path>
            <path d="M802.23,200.42 L800.6,202.06 L801.27,204.37 L802.7,204.47 L803.66,209.48 L804.81,210.73 L806.82,208.9 L807.68,205.62 L805.19,202.06 L802.23,200.42 L802.23,200.42 Z" id="kyushu" sketch:type="MSShapeGroup"></path>
            <path d="M811.03,197.15 L808.26,199.75 L808.16,202.74 L808.83,203.61 L812.56,200.43 L812.27,197.25 L811.03,197.15 L811.03,197.15 Z" id="shikoku" sketch:type="MSShapeGroup"></path>
            <path d="M807.2,190.98 L802.32,196.57 L803.18,197.92 L805.57,198.21 L810.06,194.74 L813.22,194.16 L816.09,197.53 L818.29,196.76 L819.15,193.48 L823.26,193.38 L827.28,188.56 L825.18,180.56 L824.22,176.32 L826.32,174.59 L821.54,167.37 L820.3,167.47 L817.72,170.36 L817.72,172.77 L818.87,174.12 L819.25,180.48 L816.29,184.14 L814.57,183.08 L813.23,186.07 L812.94,188.86 L813.99,190.5 L813.32,191.75 L811.12,189.92 L809.59,189.92 L808.25,190.69 L807.2,190.98 L807.2,190.98 Z" id="honshu" sketch:type="MSShapeGroup"></path>
            <path d="M815.43,147.44 L813.9,148.79 L814.67,151.68 L816.01,153.03 L815.91,157.46 L814.19,158.13 L812.85,161.12 L816.77,166.51 L819.35,165.64 L819.83,164.29 L817.06,161.79 L818.78,159.57 L820.6,159.86 L822.03,161.4 L822.13,158.22 L826.05,155.04 L828.25,154.46 L826.43,151.38 L825.57,150.03 L824.14,150.99 L822.9,152.53 L820.22,151.95 L817.45,150.12 L815.43,147.44 L815.43,147.44 Z" id="hokkaido" sketch:type="MSShapeGroup"></path>
            <path d="M68.17,37.35 L71.63,43.82 L73.85,43.32 L73.85,41.08 L68.17,37.35 L68.17,37.35 Z" id="st.-lawrence-island-west" sketch:type="MSShapeGroup"></path>
            <path d="M48.66,94.26 L48.49,97.27 L50.65,96.77 L50.65,95.43 L48.66,94.26 L48.66,94.26 Z" id="unalaska-west" sketch:type="MSShapeGroup"></path>
            <path d="M45.34,95.6 L41.02,97.78 L41.69,100.12 L43.35,98.78 L46.67,97.27 L45.34,95.6 L45.34,95.6 Z" id="umnak-west" sketch:type="MSShapeGroup"></path>
            <path d="M27.39,98.44 L24.4,97.77 L23.9,99.11 L24.23,101.62 L27.39,98.44 L27.39,98.44 Z" id="another-aleutian-west" sketch:type="MSShapeGroup"></path>
            <path d="M21.07,98.28 L18.24,97.11 L17.24,98.95 L19.07,100.79 L21.07,98.28 L21.07,98.28 Z" id="adak-west" sketch:type="MSShapeGroup"></path>
            <path d="M11.27,95.6 L9.94,93.76 L8.61,94.26 L8.61,96.77 L10.11,97.77 L11.27,95.6 L11.27,95.6 Z" id="amchitka-west" sketch:type="MSShapeGroup"></path>
            <path d="M0.47,83.71 L2.13,84.88 L1.63,86.22 L0.47,86.22 L0.47,83.71 L0.47,83.71 Z" id="attu-west" sketch:type="MSShapeGroup"></path>
            <path d="M371.64,201.02 L370.28,202.39 L372.72,203.76 L372.99,201.85 L371.64,201.02 L371.64,201.02 Z" id="flores" sketch:type="MSShapeGroup"></path>
            <path d="M378.97,200.2 L377.34,201.29 L378.7,202.38 L380.87,201.83 L378.97,200.2 L378.97,200.2 Z" id="terceira" sketch:type="MSShapeGroup"></path>
            <path d="M380.05,204.03 L379.24,206.22 L380.32,207.59 L381.68,206.5 L380.05,204.03 L380.05,204.03 Z" id="pico" sketch:type="MSShapeGroup"></path>
            <path d="M386.56,208.4 L386.02,209.77 L386.83,210.59 L389,209.22 L386.56,208.4 L386.56,208.4 Z" id="sao-miguel" sketch:type="MSShapeGroup"></path>
            <path d="M515.76,214.59 L517.39,214.64 L518.07,215.65 L520.44,215.65 L522.02,215.07 L522.55,215.71 L521.5,217.09 L516.87,217.25 L516.03,216.14 L515.14,215.61 L515.76,214.59 L515.76,214.59 Z" id="crete" sketch:type="MSShapeGroup"></path>
            <path d="M476.56,197.38 L473.91,198.72 L474.26,203.89 L476.38,204.25 L477.97,202.73 L477.97,197.83 L476.56,197.38 L476.56,197.38 Z" id="sardinia" sketch:type="MSShapeGroup"></path>
            <path d="M476.83,190.96 L474.88,192.92 L474.7,194.7 L476.29,195.68 L476.91,195.59 L477.26,193 L476.83,190.96 L476.83,190.96 Z" id="corsica" sketch:type="MSShapeGroup"></path>
            <path d="M284.04,498.1 L279.77,507.48 L287.14,508.26 L287.27,502.01 L284.04,498.1 L284.04,498.1 Z" id="tierra-del-fuego-chile" sketch:type="MSShapeGroup"></path>
            <path d="M287.92,502.79 L288.18,508.52 L292.58,508.13 L296.33,505.65 L289.99,504.35 L287.92,502.79 L287.92,502.79 Z" id="tierra-del-fuego-argentina" sketch:type="MSShapeGroup"></path>
        </g>
    </g>
</svg>